G04 #@! TF.GenerationSoftware,KiCad,Pcbnew,(5.1.9)-1*
G04 #@! TF.CreationDate,2025-02-21T20:03:25+11:00*
G04 #@! TF.ProjectId,RC1802  Integer Math Coprocessor,52433138-3032-4202-9049-6e7465676572,A*
G04 #@! TF.SameCoordinates,Original*
G04 #@! TF.FileFunction,Soldermask,Bot*
G04 #@! TF.FilePolarity,Negative*
%FSLAX46Y46*%
G04 Gerber Fmt 4.6, Leading zero omitted, Abs format (unit mm)*
G04 Created by KiCad (PCBNEW (5.1.9)-1) date 2025-02-21 20:03:25*
%MOMM*%
%LPD*%
G01*
G04 APERTURE LIST*
%ADD10O,1.700000X1.700000*%
%ADD11C,1.700000*%
%ADD12C,2.000000*%
%ADD13O,1.600000X1.600000*%
%ADD14R,1.600000X1.600000*%
%ADD15R,1.700000X1.700000*%
%ADD16C,1.600000*%
%ADD17C,5.000000*%
G04 APERTURE END LIST*
D10*
X198120000Y-109220000D03*
D11*
X198120000Y-106680000D03*
D10*
X201930000Y-109220000D03*
D11*
X201930000Y-106680000D03*
D10*
X194310000Y-109220000D03*
D11*
X194310000Y-106680000D03*
X190500000Y-106680000D03*
D10*
X190500000Y-109220000D03*
D12*
X140970000Y-85090000D03*
X140970000Y-77470000D03*
X140970000Y-81280000D03*
X140970000Y-73660000D03*
X156210000Y-129540000D03*
X177800000Y-129540000D03*
D13*
X163830000Y-62230000D03*
X148590000Y-95250000D03*
X163830000Y-64770000D03*
X148590000Y-92710000D03*
X163830000Y-67310000D03*
X148590000Y-90170000D03*
X163830000Y-69850000D03*
X148590000Y-87630000D03*
X163830000Y-72390000D03*
X148590000Y-85090000D03*
X163830000Y-74930000D03*
X148590000Y-82550000D03*
X163830000Y-77470000D03*
X148590000Y-80010000D03*
X163830000Y-80010000D03*
X148590000Y-77470000D03*
X163830000Y-82550000D03*
X148590000Y-74930000D03*
X163830000Y-85090000D03*
X148590000Y-72390000D03*
X163830000Y-87630000D03*
X148590000Y-69850000D03*
X163830000Y-90170000D03*
X148590000Y-67310000D03*
X163830000Y-92710000D03*
X148590000Y-64770000D03*
X163830000Y-95250000D03*
D14*
X148590000Y-62230000D03*
D10*
X107950000Y-135890000D03*
X110490000Y-135890000D03*
X113030000Y-135890000D03*
X115570000Y-135890000D03*
X118110000Y-135890000D03*
X120650000Y-135890000D03*
X123190000Y-135890000D03*
X125730000Y-135890000D03*
X128270000Y-135890000D03*
X130810000Y-135890000D03*
X133350000Y-135890000D03*
X135890000Y-135890000D03*
X138430000Y-135890000D03*
X140970000Y-135890000D03*
X143510000Y-135890000D03*
X146050000Y-135890000D03*
X148590000Y-135890000D03*
X151130000Y-135890000D03*
X153670000Y-135890000D03*
X156210000Y-135890000D03*
X158750000Y-135890000D03*
X161290000Y-135890000D03*
X163830000Y-135890000D03*
X166370000Y-135890000D03*
X168910000Y-135890000D03*
X171450000Y-135890000D03*
X173990000Y-135890000D03*
X176530000Y-135890000D03*
X179070000Y-135890000D03*
X181610000Y-135890000D03*
X184150000Y-135890000D03*
X186690000Y-135890000D03*
X189230000Y-135890000D03*
X191770000Y-135890000D03*
X194310000Y-135890000D03*
X196850000Y-135890000D03*
X199390000Y-135890000D03*
X201930000Y-135890000D03*
D15*
X204470000Y-135890000D03*
D16*
X161330000Y-129540000D03*
D14*
X163830000Y-129540000D03*
D17*
X201930000Y-41910000D03*
X110490000Y-41910000D03*
D16*
X158830000Y-57150000D03*
X163830000Y-57150000D03*
M02*
