M48
INCH,TZ
T1C0.0157
T2C0.0315
T3C0.0394
T4C0.1200
%
G90
G05
T1
X42500Y-43500
X43500Y-42500
X44500Y-41500
X47500Y-48000
X48500Y-47500
X49500Y-47000
X50500Y-46500
X51500Y-46000
X52500Y-45500
X53500Y-45000
X54500Y-44500
X55500Y-25500
X60000Y-39000
X60500Y-28500
X60500Y-30500
X60500Y-39000
X61000Y-32500
X64000Y-39000
X70000Y-39000
X74500Y-46000
T2
X58500Y-24500
X58500Y-25500
X58500Y-26500
X58500Y-27500
X58500Y-28500
X58500Y-29500
X58500Y-30500
X58500Y-31500
X58500Y-32500
X58500Y-33500
X58500Y-34500
X58500Y-35500
X58500Y-36500
X58500Y-37500
X62531Y-22500
X63516Y-51000
X64500Y-22500
X64500Y-24500
X64500Y-25500
X64500Y-26500
X64500Y-27500
X64500Y-28500
X64500Y-29500
X64500Y-30500
X64500Y-31500
X64500Y-32500
X64500Y-33500
X64500Y-34500
X64500Y-35500
X64500Y-36500
X64500Y-37500
X64500Y-51000
T3
X42500Y-53500
X43500Y-53500
X44500Y-53500
X45500Y-53500
X46500Y-53500
X47500Y-53500
X48500Y-53500
X49500Y-53500
X50500Y-53500
X51500Y-53500
X52500Y-53500
X53500Y-53500
X54500Y-53500
X55500Y-29000
X55500Y-30500
X55500Y-32000
X55500Y-33500
X55500Y-53500
X56500Y-53500
X57500Y-53500
X58500Y-53500
X59500Y-53500
X60500Y-53500
X61500Y-51000
X61500Y-53500
X62500Y-53500
X63500Y-53500
X64500Y-53500
X65500Y-53500
X66500Y-53500
X67500Y-53500
X68500Y-53500
X69500Y-53500
X70000Y-51000
X70500Y-53500
X71500Y-53500
X72500Y-53500
X73500Y-53500
X74500Y-53500
X75000Y-42000
X75000Y-43000
X75500Y-53500
X76500Y-42000
X76500Y-43000
X76500Y-53500
X77500Y-53500
X78000Y-42000
X78000Y-43000
X78500Y-53500
X79500Y-42000
X79500Y-43000
X79500Y-53500
X80500Y-53500
T4
X43500Y-16500
X79500Y-16500
T0
M30
