G04 #@! TF.GenerationSoftware,KiCad,Pcbnew,(5.1.9)-1*
G04 #@! TF.CreationDate,2025-02-21T20:03:25+11:00*
G04 #@! TF.ProjectId,RC1802  Integer Math Coprocessor,52433138-3032-4202-9049-6e7465676572,A*
G04 #@! TF.SameCoordinates,Original*
G04 #@! TF.FileFunction,Copper,L2,Bot*
G04 #@! TF.FilePolarity,Positive*
%FSLAX46Y46*%
G04 Gerber Fmt 4.6, Leading zero omitted, Abs format (unit mm)*
G04 Created by KiCad (PCBNEW (5.1.9)-1) date 2025-02-21 20:03:25*
%MOMM*%
%LPD*%
G01*
G04 APERTURE LIST*
G04 #@! TA.AperFunction,ComponentPad*
%ADD10O,1.700000X1.700000*%
G04 #@! TD*
G04 #@! TA.AperFunction,ComponentPad*
%ADD11C,1.700000*%
G04 #@! TD*
G04 #@! TA.AperFunction,ComponentPad*
%ADD12C,2.000000*%
G04 #@! TD*
G04 #@! TA.AperFunction,ComponentPad*
%ADD13O,1.600000X1.600000*%
G04 #@! TD*
G04 #@! TA.AperFunction,ComponentPad*
%ADD14R,1.600000X1.600000*%
G04 #@! TD*
G04 #@! TA.AperFunction,ComponentPad*
%ADD15R,1.700000X1.700000*%
G04 #@! TD*
G04 #@! TA.AperFunction,ComponentPad*
%ADD16C,1.600000*%
G04 #@! TD*
G04 #@! TA.AperFunction,ComponentPad*
%ADD17C,5.000000*%
G04 #@! TD*
G04 #@! TA.AperFunction,ViaPad*
%ADD18C,0.800000*%
G04 #@! TD*
G04 #@! TA.AperFunction,Conductor*
%ADD19C,1.000000*%
G04 #@! TD*
G04 #@! TA.AperFunction,Conductor*
%ADD20C,0.250000*%
G04 #@! TD*
G04 APERTURE END LIST*
D10*
X198120000Y-109220000D03*
D11*
X198120000Y-106680000D03*
D10*
X201930000Y-109220000D03*
D11*
X201930000Y-106680000D03*
D10*
X194310000Y-109220000D03*
D11*
X194310000Y-106680000D03*
X190500000Y-106680000D03*
D10*
X190500000Y-109220000D03*
D12*
X140970000Y-85090000D03*
X140970000Y-77470000D03*
X140970000Y-81280000D03*
X140970000Y-73660000D03*
X156210000Y-129540000D03*
X177800000Y-129540000D03*
D13*
X163830000Y-62230000D03*
X148590000Y-95250000D03*
X163830000Y-64770000D03*
X148590000Y-92710000D03*
X163830000Y-67310000D03*
X148590000Y-90170000D03*
X163830000Y-69850000D03*
X148590000Y-87630000D03*
X163830000Y-72390000D03*
X148590000Y-85090000D03*
X163830000Y-74930000D03*
X148590000Y-82550000D03*
X163830000Y-77470000D03*
X148590000Y-80010000D03*
X163830000Y-80010000D03*
X148590000Y-77470000D03*
X163830000Y-82550000D03*
X148590000Y-74930000D03*
X163830000Y-85090000D03*
X148590000Y-72390000D03*
X163830000Y-87630000D03*
X148590000Y-69850000D03*
X163830000Y-90170000D03*
X148590000Y-67310000D03*
X163830000Y-92710000D03*
X148590000Y-64770000D03*
X163830000Y-95250000D03*
D14*
X148590000Y-62230000D03*
D10*
X107950000Y-135890000D03*
X110490000Y-135890000D03*
X113030000Y-135890000D03*
X115570000Y-135890000D03*
X118110000Y-135890000D03*
X120650000Y-135890000D03*
X123190000Y-135890000D03*
X125730000Y-135890000D03*
X128270000Y-135890000D03*
X130810000Y-135890000D03*
X133350000Y-135890000D03*
X135890000Y-135890000D03*
X138430000Y-135890000D03*
X140970000Y-135890000D03*
X143510000Y-135890000D03*
X146050000Y-135890000D03*
X148590000Y-135890000D03*
X151130000Y-135890000D03*
X153670000Y-135890000D03*
X156210000Y-135890000D03*
X158750000Y-135890000D03*
X161290000Y-135890000D03*
X163830000Y-135890000D03*
X166370000Y-135890000D03*
X168910000Y-135890000D03*
X171450000Y-135890000D03*
X173990000Y-135890000D03*
X176530000Y-135890000D03*
X179070000Y-135890000D03*
X181610000Y-135890000D03*
X184150000Y-135890000D03*
X186690000Y-135890000D03*
X189230000Y-135890000D03*
X191770000Y-135890000D03*
X194310000Y-135890000D03*
X196850000Y-135890000D03*
X199390000Y-135890000D03*
X201930000Y-135890000D03*
D15*
X204470000Y-135890000D03*
D16*
X161330000Y-129540000D03*
D14*
X163830000Y-129540000D03*
D17*
X201930000Y-41910000D03*
X110490000Y-41910000D03*
D16*
X158830000Y-57150000D03*
X163830000Y-57150000D03*
D18*
X189230000Y-116840000D03*
X154940000Y-82550000D03*
X162560000Y-99060000D03*
X177800000Y-99060000D03*
X153670000Y-99060000D03*
X152400000Y-99060000D03*
X140970000Y-64770000D03*
X138430000Y-113030000D03*
X135890000Y-114300000D03*
X133350000Y-115570000D03*
X130810000Y-116840000D03*
X128270000Y-118110000D03*
X125730000Y-119380000D03*
X123190000Y-120650000D03*
X120650000Y-121920000D03*
X113030000Y-105410000D03*
X110490000Y-107950000D03*
X107950000Y-110490000D03*
X153670000Y-77470000D03*
X153670000Y-72390000D03*
D19*
X163830000Y-57150000D02*
X163830000Y-62230000D01*
X172720000Y-62230000D02*
X163830000Y-62230000D01*
X180340000Y-62230000D02*
X172720000Y-62230000D01*
X163830000Y-129540000D02*
X180340000Y-129540000D01*
X180340000Y-62230000D02*
X180340000Y-129540000D01*
D20*
X158750000Y-57230000D02*
X158830000Y-57150000D01*
D19*
X158750000Y-95250000D02*
X158750000Y-57230000D01*
X148590000Y-95250000D02*
X158750000Y-95250000D01*
X158750000Y-129540000D02*
X161290000Y-129540000D01*
X158750000Y-95250000D02*
X158750000Y-129540000D01*
X161330000Y-129540000D02*
X161330000Y-133310000D01*
D20*
X161330000Y-133310000D02*
X161370000Y-133350000D01*
D19*
X161370000Y-133350000D02*
X163830000Y-133350000D01*
X163830000Y-133350000D02*
X163830000Y-135890000D01*
X156210000Y-129540000D02*
X158750000Y-129540000D01*
D20*
X204470000Y-114300000D02*
X204470000Y-135890000D01*
X204470000Y-111760000D02*
X204470000Y-114300000D01*
X201930000Y-111760000D02*
X204470000Y-111760000D01*
X201930000Y-109220000D02*
X201930000Y-111760000D01*
X201930000Y-115570000D02*
X201930000Y-135890000D01*
X198120000Y-109220000D02*
X198120000Y-113030000D01*
X198120000Y-113030000D02*
X201930000Y-113030000D01*
X201930000Y-113030000D02*
X201930000Y-115570000D01*
X194310000Y-109220000D02*
X194310000Y-113030000D01*
X199390000Y-116840000D02*
X199390000Y-114300000D01*
X194310000Y-114300000D02*
X199390000Y-114300000D01*
X199390000Y-116840000D02*
X199390000Y-119380000D01*
X199390000Y-119380000D02*
X199390000Y-135890000D01*
X194310000Y-113030000D02*
X194310000Y-114300000D01*
X189230000Y-118110000D02*
X189230000Y-135890000D01*
X148590000Y-82550000D02*
X154940000Y-82550000D01*
X189230000Y-116840000D02*
X189230000Y-118110000D01*
X162560000Y-99060000D02*
X171450000Y-99060000D01*
X171450000Y-99060000D02*
X171450000Y-99060000D01*
X171450000Y-99060000D02*
X177800000Y-99060000D01*
X153670000Y-99060000D02*
X153670000Y-99060000D01*
X153670000Y-135890000D02*
X153670000Y-116840000D01*
X153670000Y-99060000D02*
X153670000Y-116840000D01*
X143510000Y-135890000D02*
X143510000Y-130810000D01*
X143510000Y-130810000D02*
X152400000Y-130810000D01*
X152400000Y-130810000D02*
X152400000Y-116840000D01*
X152400000Y-99060000D02*
X152400000Y-99060000D01*
X152400000Y-99060000D02*
X152400000Y-116840000D01*
X140970000Y-64770000D02*
X140970000Y-64770000D01*
X138430000Y-67310000D02*
X138430000Y-87630000D01*
X138430000Y-87630000D02*
X140970000Y-90170000D01*
X140970000Y-64770000D02*
X138430000Y-67310000D01*
X140970000Y-90170000D02*
X140970000Y-135890000D01*
X138430000Y-113030000D02*
X138430000Y-135890000D01*
X135890000Y-114300000D02*
X135890000Y-135890000D01*
X133350000Y-115570000D02*
X133350000Y-135890000D01*
X130810000Y-116840000D02*
X130810000Y-135890000D01*
X128270000Y-118110000D02*
X128270000Y-135890000D01*
X125730000Y-119380000D02*
X125730000Y-135890000D01*
X123190000Y-120650000D02*
X123190000Y-135890000D01*
X120650000Y-121920000D02*
X120650000Y-135890000D01*
X113030000Y-105410000D02*
X113030000Y-135890000D01*
X110490000Y-119380000D02*
X110490000Y-135890000D01*
X110490000Y-119380000D02*
X110490000Y-107950000D01*
X107950000Y-124460000D02*
X107950000Y-110490000D01*
X107950000Y-135890000D02*
X107950000Y-124460000D01*
X153670000Y-72390000D02*
X153670000Y-76200000D01*
X153670000Y-76200000D02*
X153670000Y-77470000D01*
X196850000Y-118110000D02*
X196850000Y-135890000D01*
X182880000Y-59690000D02*
X182880000Y-106680000D01*
X143510000Y-69850000D02*
X148590000Y-69850000D01*
X171450000Y-59690000D02*
X182880000Y-59690000D01*
X143510000Y-53340000D02*
X143510000Y-69850000D01*
X171450000Y-53340000D02*
X143510000Y-53340000D01*
X171450000Y-59690000D02*
X171450000Y-53340000D01*
X190500000Y-106680000D02*
X190500000Y-109220000D01*
X182880000Y-106680000D02*
X190500000Y-106680000D01*
X190500000Y-106680000D02*
X194310000Y-106680000D01*
X194310000Y-106680000D02*
X198120000Y-106680000D01*
X198120000Y-106680000D02*
X201930000Y-106680000D01*
X190500000Y-109220000D02*
X190500000Y-115570000D01*
X190500000Y-115570000D02*
X196850000Y-115570000D01*
X196850000Y-115570000D02*
X196850000Y-118110000D01*
M02*
