G04 #@! TF.GenerationSoftware,KiCad,Pcbnew,(5.1.9)-1*
G04 #@! TF.CreationDate,2025-02-21T20:03:25+11:00*
G04 #@! TF.ProjectId,RC1802  Integer Math Coprocessor,52433138-3032-4202-9049-6e7465676572,A*
G04 #@! TF.SameCoordinates,Original*
G04 #@! TF.FileFunction,Legend,Top*
G04 #@! TF.FilePolarity,Positive*
%FSLAX46Y46*%
G04 Gerber Fmt 4.6, Leading zero omitted, Abs format (unit mm)*
G04 Created by KiCad (PCBNEW (5.1.9)-1) date 2025-02-21 20:03:25*
%MOMM*%
%LPD*%
G01*
G04 APERTURE LIST*
%ADD10C,0.300000*%
%ADD11C,0.120000*%
%ADD12C,0.150000*%
G04 APERTURE END LIST*
D10*
X200767142Y-112621428D02*
X200767142Y-113121428D01*
X199981428Y-113335714D02*
X199981428Y-112621428D01*
X201481428Y-112621428D01*
X201481428Y-113335714D01*
X200767142Y-114478571D02*
X200767142Y-113978571D01*
X199981428Y-113978571D02*
X201481428Y-113978571D01*
X201481428Y-114692857D01*
X199981428Y-116050000D02*
X199981428Y-115192857D01*
X199981428Y-115621428D02*
X201481428Y-115621428D01*
X201267142Y-115478571D01*
X201124285Y-115335714D01*
X201052857Y-115192857D01*
X193147142Y-112621428D02*
X193147142Y-113121428D01*
X192361428Y-113335714D02*
X192361428Y-112621428D01*
X193861428Y-112621428D01*
X193861428Y-113335714D01*
X193147142Y-114478571D02*
X193147142Y-113978571D01*
X192361428Y-113978571D02*
X193861428Y-113978571D01*
X193861428Y-114692857D01*
X193361428Y-115907142D02*
X192361428Y-115907142D01*
X193932857Y-115550000D02*
X192861428Y-115192857D01*
X192861428Y-116121428D01*
X195687142Y-112621428D02*
X195687142Y-113121428D01*
X194901428Y-113335714D02*
X194901428Y-112621428D01*
X196401428Y-112621428D01*
X196401428Y-113335714D01*
X195687142Y-114478571D02*
X195687142Y-113978571D01*
X194901428Y-113978571D02*
X196401428Y-113978571D01*
X196401428Y-114692857D01*
X196401428Y-115121428D02*
X196401428Y-116050000D01*
X195830000Y-115550000D01*
X195830000Y-115764285D01*
X195758571Y-115907142D01*
X195687142Y-115978571D01*
X195544285Y-116050000D01*
X195187142Y-116050000D01*
X195044285Y-115978571D01*
X194972857Y-115907142D01*
X194901428Y-115764285D01*
X194901428Y-115335714D01*
X194972857Y-115192857D01*
X195044285Y-115121428D01*
X198227142Y-112621428D02*
X198227142Y-113121428D01*
X197441428Y-113335714D02*
X197441428Y-112621428D01*
X198941428Y-112621428D01*
X198941428Y-113335714D01*
X198227142Y-114478571D02*
X198227142Y-113978571D01*
X197441428Y-113978571D02*
X198941428Y-113978571D01*
X198941428Y-114692857D01*
X198798571Y-115192857D02*
X198870000Y-115264285D01*
X198941428Y-115407142D01*
X198941428Y-115764285D01*
X198870000Y-115907142D01*
X198798571Y-115978571D01*
X198655714Y-116050000D01*
X198512857Y-116050000D01*
X198298571Y-115978571D01*
X197441428Y-115121428D01*
X197441428Y-116050000D01*
X133489285Y-41308571D02*
X132989285Y-40594285D01*
X132632142Y-41308571D02*
X132632142Y-39808571D01*
X133203571Y-39808571D01*
X133346428Y-39880000D01*
X133417857Y-39951428D01*
X133489285Y-40094285D01*
X133489285Y-40308571D01*
X133417857Y-40451428D01*
X133346428Y-40522857D01*
X133203571Y-40594285D01*
X132632142Y-40594285D01*
X134989285Y-41165714D02*
X134917857Y-41237142D01*
X134703571Y-41308571D01*
X134560714Y-41308571D01*
X134346428Y-41237142D01*
X134203571Y-41094285D01*
X134132142Y-40951428D01*
X134060714Y-40665714D01*
X134060714Y-40451428D01*
X134132142Y-40165714D01*
X134203571Y-40022857D01*
X134346428Y-39880000D01*
X134560714Y-39808571D01*
X134703571Y-39808571D01*
X134917857Y-39880000D01*
X134989285Y-39951428D01*
X136417857Y-41308571D02*
X135560714Y-41308571D01*
X135989285Y-41308571D02*
X135989285Y-39808571D01*
X135846428Y-40022857D01*
X135703571Y-40165714D01*
X135560714Y-40237142D01*
X137275000Y-40451428D02*
X137132142Y-40380000D01*
X137060714Y-40308571D01*
X136989285Y-40165714D01*
X136989285Y-40094285D01*
X137060714Y-39951428D01*
X137132142Y-39880000D01*
X137275000Y-39808571D01*
X137560714Y-39808571D01*
X137703571Y-39880000D01*
X137775000Y-39951428D01*
X137846428Y-40094285D01*
X137846428Y-40165714D01*
X137775000Y-40308571D01*
X137703571Y-40380000D01*
X137560714Y-40451428D01*
X137275000Y-40451428D01*
X137132142Y-40522857D01*
X137060714Y-40594285D01*
X136989285Y-40737142D01*
X136989285Y-41022857D01*
X137060714Y-41165714D01*
X137132142Y-41237142D01*
X137275000Y-41308571D01*
X137560714Y-41308571D01*
X137703571Y-41237142D01*
X137775000Y-41165714D01*
X137846428Y-41022857D01*
X137846428Y-40737142D01*
X137775000Y-40594285D01*
X137703571Y-40522857D01*
X137560714Y-40451428D01*
X138775000Y-39808571D02*
X138917857Y-39808571D01*
X139060714Y-39880000D01*
X139132142Y-39951428D01*
X139203571Y-40094285D01*
X139275000Y-40380000D01*
X139275000Y-40737142D01*
X139203571Y-41022857D01*
X139132142Y-41165714D01*
X139060714Y-41237142D01*
X138917857Y-41308571D01*
X138775000Y-41308571D01*
X138632142Y-41237142D01*
X138560714Y-41165714D01*
X138489285Y-41022857D01*
X138417857Y-40737142D01*
X138417857Y-40380000D01*
X138489285Y-40094285D01*
X138560714Y-39951428D01*
X138632142Y-39880000D01*
X138775000Y-39808571D01*
X139846428Y-39951428D02*
X139917857Y-39880000D01*
X140060714Y-39808571D01*
X140417857Y-39808571D01*
X140560714Y-39880000D01*
X140632142Y-39951428D01*
X140703571Y-40094285D01*
X140703571Y-40237142D01*
X140632142Y-40451428D01*
X139775000Y-41308571D01*
X140703571Y-41308571D01*
X143346428Y-41165714D02*
X143275000Y-41237142D01*
X143060714Y-41308571D01*
X142917857Y-41308571D01*
X142703571Y-41237142D01*
X142560714Y-41094285D01*
X142489285Y-40951428D01*
X142417857Y-40665714D01*
X142417857Y-40451428D01*
X142489285Y-40165714D01*
X142560714Y-40022857D01*
X142703571Y-39880000D01*
X142917857Y-39808571D01*
X143060714Y-39808571D01*
X143275000Y-39880000D01*
X143346428Y-39951428D01*
X144203571Y-41308571D02*
X144060714Y-41237142D01*
X143989285Y-41165714D01*
X143917857Y-41022857D01*
X143917857Y-40594285D01*
X143989285Y-40451428D01*
X144060714Y-40380000D01*
X144203571Y-40308571D01*
X144417857Y-40308571D01*
X144560714Y-40380000D01*
X144632142Y-40451428D01*
X144703571Y-40594285D01*
X144703571Y-41022857D01*
X144632142Y-41165714D01*
X144560714Y-41237142D01*
X144417857Y-41308571D01*
X144203571Y-41308571D01*
X145275000Y-41237142D02*
X145417857Y-41308571D01*
X145703571Y-41308571D01*
X145846428Y-41237142D01*
X145917857Y-41094285D01*
X145917857Y-41022857D01*
X145846428Y-40880000D01*
X145703571Y-40808571D01*
X145489285Y-40808571D01*
X145346428Y-40737142D01*
X145275000Y-40594285D01*
X145275000Y-40522857D01*
X145346428Y-40380000D01*
X145489285Y-40308571D01*
X145703571Y-40308571D01*
X145846428Y-40380000D01*
X146560714Y-41308571D02*
X146560714Y-40308571D01*
X146560714Y-40451428D02*
X146632142Y-40380000D01*
X146775000Y-40308571D01*
X146989285Y-40308571D01*
X147132142Y-40380000D01*
X147203571Y-40522857D01*
X147203571Y-41308571D01*
X147203571Y-40522857D02*
X147275000Y-40380000D01*
X147417857Y-40308571D01*
X147632142Y-40308571D01*
X147775000Y-40380000D01*
X147846428Y-40522857D01*
X147846428Y-41308571D01*
X149203571Y-41308571D02*
X149203571Y-40522857D01*
X149132142Y-40380000D01*
X148989285Y-40308571D01*
X148703571Y-40308571D01*
X148560714Y-40380000D01*
X149203571Y-41237142D02*
X149060714Y-41308571D01*
X148703571Y-41308571D01*
X148560714Y-41237142D01*
X148489285Y-41094285D01*
X148489285Y-40951428D01*
X148560714Y-40808571D01*
X148703571Y-40737142D01*
X149060714Y-40737142D01*
X149203571Y-40665714D01*
X150560714Y-41237142D02*
X150417857Y-41308571D01*
X150132142Y-41308571D01*
X149989285Y-41237142D01*
X149917857Y-41165714D01*
X149846428Y-41022857D01*
X149846428Y-40594285D01*
X149917857Y-40451428D01*
X149989285Y-40380000D01*
X150132142Y-40308571D01*
X150417857Y-40308571D01*
X150560714Y-40380000D01*
X152346428Y-40522857D02*
X152846428Y-40522857D01*
X153060714Y-41308571D02*
X152346428Y-41308571D01*
X152346428Y-39808571D01*
X153060714Y-39808571D01*
X154417857Y-41308571D02*
X153703571Y-41308571D01*
X153703571Y-39808571D01*
X155417857Y-40522857D02*
X154917857Y-40522857D01*
X154917857Y-41308571D02*
X154917857Y-39808571D01*
X155632142Y-39808571D01*
X132632142Y-43858571D02*
X132632142Y-42358571D01*
X133132142Y-43430000D01*
X133632142Y-42358571D01*
X133632142Y-43858571D01*
X134989285Y-42858571D02*
X134989285Y-43858571D01*
X134346428Y-42858571D02*
X134346428Y-43644285D01*
X134417857Y-43787142D01*
X134560714Y-43858571D01*
X134775000Y-43858571D01*
X134917857Y-43787142D01*
X134989285Y-43715714D01*
X135917857Y-43858571D02*
X135775000Y-43787142D01*
X135703571Y-43644285D01*
X135703571Y-42358571D01*
X136275000Y-42858571D02*
X136846428Y-42858571D01*
X136489285Y-42358571D02*
X136489285Y-43644285D01*
X136560714Y-43787142D01*
X136703571Y-43858571D01*
X136846428Y-43858571D01*
X137346428Y-43858571D02*
X137346428Y-42858571D01*
X137346428Y-42358571D02*
X137275000Y-42430000D01*
X137346428Y-42501428D01*
X137417857Y-42430000D01*
X137346428Y-42358571D01*
X137346428Y-42501428D01*
X138060714Y-42858571D02*
X138060714Y-44358571D01*
X138060714Y-42930000D02*
X138203571Y-42858571D01*
X138489285Y-42858571D01*
X138632142Y-42930000D01*
X138703571Y-43001428D01*
X138775000Y-43144285D01*
X138775000Y-43572857D01*
X138703571Y-43715714D01*
X138632142Y-43787142D01*
X138489285Y-43858571D01*
X138203571Y-43858571D01*
X138060714Y-43787142D01*
X139632142Y-43858571D02*
X139489285Y-43787142D01*
X139417857Y-43644285D01*
X139417857Y-42358571D01*
X140060714Y-42858571D02*
X140417857Y-43858571D01*
X140775000Y-42858571D02*
X140417857Y-43858571D01*
X140275000Y-44215714D01*
X140203571Y-44287142D01*
X140060714Y-44358571D01*
X142417857Y-42287142D02*
X141132142Y-44215714D01*
X142917857Y-43858571D02*
X142917857Y-42358571D01*
X143275000Y-42358571D01*
X143489285Y-42430000D01*
X143632142Y-42572857D01*
X143703571Y-42715714D01*
X143775000Y-43001428D01*
X143775000Y-43215714D01*
X143703571Y-43501428D01*
X143632142Y-43644285D01*
X143489285Y-43787142D01*
X143275000Y-43858571D01*
X142917857Y-43858571D01*
X144417857Y-43858571D02*
X144417857Y-42858571D01*
X144417857Y-42358571D02*
X144346428Y-42430000D01*
X144417857Y-42501428D01*
X144489285Y-42430000D01*
X144417857Y-42358571D01*
X144417857Y-42501428D01*
X144989285Y-42858571D02*
X145346428Y-43858571D01*
X145703571Y-42858571D01*
X146275000Y-43858571D02*
X146275000Y-42858571D01*
X146275000Y-42358571D02*
X146203571Y-42430000D01*
X146275000Y-42501428D01*
X146346428Y-42430000D01*
X146275000Y-42358571D01*
X146275000Y-42501428D01*
X147632142Y-43858571D02*
X147632142Y-42358571D01*
X147632142Y-43787142D02*
X147489285Y-43858571D01*
X147203571Y-43858571D01*
X147060714Y-43787142D01*
X146989285Y-43715714D01*
X146917857Y-43572857D01*
X146917857Y-43144285D01*
X146989285Y-43001428D01*
X147060714Y-42930000D01*
X147203571Y-42858571D01*
X147489285Y-42858571D01*
X147632142Y-42930000D01*
X148917857Y-43787142D02*
X148775000Y-43858571D01*
X148489285Y-43858571D01*
X148346428Y-43787142D01*
X148275000Y-43644285D01*
X148275000Y-43072857D01*
X148346428Y-42930000D01*
X148489285Y-42858571D01*
X148775000Y-42858571D01*
X148917857Y-42930000D01*
X148989285Y-43072857D01*
X148989285Y-43215714D01*
X148275000Y-43358571D01*
X151632142Y-43715714D02*
X151560714Y-43787142D01*
X151346428Y-43858571D01*
X151203571Y-43858571D01*
X150989285Y-43787142D01*
X150846428Y-43644285D01*
X150775000Y-43501428D01*
X150703571Y-43215714D01*
X150703571Y-43001428D01*
X150775000Y-42715714D01*
X150846428Y-42572857D01*
X150989285Y-42430000D01*
X151203571Y-42358571D01*
X151346428Y-42358571D01*
X151560714Y-42430000D01*
X151632142Y-42501428D01*
X152489285Y-43858571D02*
X152346428Y-43787142D01*
X152275000Y-43715714D01*
X152203571Y-43572857D01*
X152203571Y-43144285D01*
X152275000Y-43001428D01*
X152346428Y-42930000D01*
X152489285Y-42858571D01*
X152703571Y-42858571D01*
X152846428Y-42930000D01*
X152917857Y-43001428D01*
X152989285Y-43144285D01*
X152989285Y-43572857D01*
X152917857Y-43715714D01*
X152846428Y-43787142D01*
X152703571Y-43858571D01*
X152489285Y-43858571D01*
X153632142Y-42858571D02*
X153632142Y-44358571D01*
X153632142Y-42930000D02*
X153775000Y-42858571D01*
X154060714Y-42858571D01*
X154203571Y-42930000D01*
X154275000Y-43001428D01*
X154346428Y-43144285D01*
X154346428Y-43572857D01*
X154275000Y-43715714D01*
X154203571Y-43787142D01*
X154060714Y-43858571D01*
X153775000Y-43858571D01*
X153632142Y-43787142D01*
X154989285Y-43858571D02*
X154989285Y-42858571D01*
X154989285Y-43144285D02*
X155060714Y-43001428D01*
X155132142Y-42930000D01*
X155275000Y-42858571D01*
X155417857Y-42858571D01*
X156132142Y-43858571D02*
X155989285Y-43787142D01*
X155917857Y-43715714D01*
X155846428Y-43572857D01*
X155846428Y-43144285D01*
X155917857Y-43001428D01*
X155989285Y-42930000D01*
X156132142Y-42858571D01*
X156346428Y-42858571D01*
X156489285Y-42930000D01*
X156560714Y-43001428D01*
X156632142Y-43144285D01*
X156632142Y-43572857D01*
X156560714Y-43715714D01*
X156489285Y-43787142D01*
X156346428Y-43858571D01*
X156132142Y-43858571D01*
X157917857Y-43787142D02*
X157775000Y-43858571D01*
X157489285Y-43858571D01*
X157346428Y-43787142D01*
X157275000Y-43715714D01*
X157203571Y-43572857D01*
X157203571Y-43144285D01*
X157275000Y-43001428D01*
X157346428Y-42930000D01*
X157489285Y-42858571D01*
X157775000Y-42858571D01*
X157917857Y-42930000D01*
X159132142Y-43787142D02*
X158989285Y-43858571D01*
X158703571Y-43858571D01*
X158560714Y-43787142D01*
X158489285Y-43644285D01*
X158489285Y-43072857D01*
X158560714Y-42930000D01*
X158703571Y-42858571D01*
X158989285Y-42858571D01*
X159132142Y-42930000D01*
X159203571Y-43072857D01*
X159203571Y-43215714D01*
X158489285Y-43358571D01*
X159775000Y-43787142D02*
X159917857Y-43858571D01*
X160203571Y-43858571D01*
X160346428Y-43787142D01*
X160417857Y-43644285D01*
X160417857Y-43572857D01*
X160346428Y-43430000D01*
X160203571Y-43358571D01*
X159989285Y-43358571D01*
X159846428Y-43287142D01*
X159775000Y-43144285D01*
X159775000Y-43072857D01*
X159846428Y-42930000D01*
X159989285Y-42858571D01*
X160203571Y-42858571D01*
X160346428Y-42930000D01*
X160989285Y-43787142D02*
X161132142Y-43858571D01*
X161417857Y-43858571D01*
X161560714Y-43787142D01*
X161632142Y-43644285D01*
X161632142Y-43572857D01*
X161560714Y-43430000D01*
X161417857Y-43358571D01*
X161203571Y-43358571D01*
X161060714Y-43287142D01*
X160989285Y-43144285D01*
X160989285Y-43072857D01*
X161060714Y-42930000D01*
X161203571Y-42858571D01*
X161417857Y-42858571D01*
X161560714Y-42930000D01*
X162489285Y-43858571D02*
X162346428Y-43787142D01*
X162275000Y-43715714D01*
X162203571Y-43572857D01*
X162203571Y-43144285D01*
X162275000Y-43001428D01*
X162346428Y-42930000D01*
X162489285Y-42858571D01*
X162703571Y-42858571D01*
X162846428Y-42930000D01*
X162917857Y-43001428D01*
X162989285Y-43144285D01*
X162989285Y-43572857D01*
X162917857Y-43715714D01*
X162846428Y-43787142D01*
X162703571Y-43858571D01*
X162489285Y-43858571D01*
X163632142Y-43858571D02*
X163632142Y-42858571D01*
X163632142Y-43144285D02*
X163703571Y-43001428D01*
X163775000Y-42930000D01*
X163917857Y-42858571D01*
X164060714Y-42858571D01*
X166203571Y-43072857D02*
X166417857Y-43144285D01*
X166489285Y-43215714D01*
X166560714Y-43358571D01*
X166560714Y-43572857D01*
X166489285Y-43715714D01*
X166417857Y-43787142D01*
X166275000Y-43858571D01*
X165703571Y-43858571D01*
X165703571Y-42358571D01*
X166203571Y-42358571D01*
X166346428Y-42430000D01*
X166417857Y-42501428D01*
X166489285Y-42644285D01*
X166489285Y-42787142D01*
X166417857Y-42930000D01*
X166346428Y-43001428D01*
X166203571Y-43072857D01*
X165703571Y-43072857D01*
X167417857Y-43858571D02*
X167275000Y-43787142D01*
X167203571Y-43715714D01*
X167132142Y-43572857D01*
X167132142Y-43144285D01*
X167203571Y-43001428D01*
X167275000Y-42930000D01*
X167417857Y-42858571D01*
X167632142Y-42858571D01*
X167775000Y-42930000D01*
X167846428Y-43001428D01*
X167917857Y-43144285D01*
X167917857Y-43572857D01*
X167846428Y-43715714D01*
X167775000Y-43787142D01*
X167632142Y-43858571D01*
X167417857Y-43858571D01*
X169203571Y-43858571D02*
X169203571Y-43072857D01*
X169132142Y-42930000D01*
X168989285Y-42858571D01*
X168703571Y-42858571D01*
X168560714Y-42930000D01*
X169203571Y-43787142D02*
X169060714Y-43858571D01*
X168703571Y-43858571D01*
X168560714Y-43787142D01*
X168489285Y-43644285D01*
X168489285Y-43501428D01*
X168560714Y-43358571D01*
X168703571Y-43287142D01*
X169060714Y-43287142D01*
X169203571Y-43215714D01*
X169917857Y-43858571D02*
X169917857Y-42858571D01*
X169917857Y-43144285D02*
X169989285Y-43001428D01*
X170060714Y-42930000D01*
X170203571Y-42858571D01*
X170346428Y-42858571D01*
X171489285Y-43858571D02*
X171489285Y-42358571D01*
X171489285Y-43787142D02*
X171346428Y-43858571D01*
X171060714Y-43858571D01*
X170917857Y-43787142D01*
X170846428Y-43715714D01*
X170775000Y-43572857D01*
X170775000Y-43144285D01*
X170846428Y-43001428D01*
X170917857Y-42930000D01*
X171060714Y-42858571D01*
X171346428Y-42858571D01*
X171489285Y-42930000D01*
X174203571Y-43858571D02*
X173703571Y-43144285D01*
X173346428Y-43858571D02*
X173346428Y-42358571D01*
X173917857Y-42358571D01*
X174060714Y-42430000D01*
X174132142Y-42501428D01*
X174203571Y-42644285D01*
X174203571Y-42858571D01*
X174132142Y-43001428D01*
X174060714Y-43072857D01*
X173917857Y-43144285D01*
X173346428Y-43144285D01*
X175417857Y-43787142D02*
X175275000Y-43858571D01*
X174989285Y-43858571D01*
X174846428Y-43787142D01*
X174775000Y-43644285D01*
X174775000Y-43072857D01*
X174846428Y-42930000D01*
X174989285Y-42858571D01*
X175275000Y-42858571D01*
X175417857Y-42930000D01*
X175489285Y-43072857D01*
X175489285Y-43215714D01*
X174775000Y-43358571D01*
X175989285Y-42858571D02*
X176346428Y-43858571D01*
X176703571Y-42858571D01*
X177275000Y-43858571D02*
X177275000Y-42858571D01*
X177275000Y-42358571D02*
X177203571Y-42430000D01*
X177275000Y-42501428D01*
X177346428Y-42430000D01*
X177275000Y-42358571D01*
X177275000Y-42501428D01*
X177917857Y-43787142D02*
X178060714Y-43858571D01*
X178346428Y-43858571D01*
X178489285Y-43787142D01*
X178560714Y-43644285D01*
X178560714Y-43572857D01*
X178489285Y-43430000D01*
X178346428Y-43358571D01*
X178132142Y-43358571D01*
X177989285Y-43287142D01*
X177917857Y-43144285D01*
X177917857Y-43072857D01*
X177989285Y-42930000D01*
X178132142Y-42858571D01*
X178346428Y-42858571D01*
X178489285Y-42930000D01*
X179203571Y-43858571D02*
X179203571Y-42858571D01*
X179203571Y-42358571D02*
X179132142Y-42430000D01*
X179203571Y-42501428D01*
X179275000Y-42430000D01*
X179203571Y-42358571D01*
X179203571Y-42501428D01*
X180132142Y-43858571D02*
X179989285Y-43787142D01*
X179917857Y-43715714D01*
X179846428Y-43572857D01*
X179846428Y-43144285D01*
X179917857Y-43001428D01*
X179989285Y-42930000D01*
X180132142Y-42858571D01*
X180346428Y-42858571D01*
X180489285Y-42930000D01*
X180560714Y-43001428D01*
X180632142Y-43144285D01*
X180632142Y-43572857D01*
X180560714Y-43715714D01*
X180489285Y-43787142D01*
X180346428Y-43858571D01*
X180132142Y-43858571D01*
X181275000Y-42858571D02*
X181275000Y-43858571D01*
X181275000Y-43001428D02*
X181346428Y-42930000D01*
X181489285Y-42858571D01*
X181703571Y-42858571D01*
X181846428Y-42930000D01*
X181917857Y-43072857D01*
X181917857Y-43858571D01*
X183703571Y-43430000D02*
X184417857Y-43430000D01*
X183560714Y-43858571D02*
X184060714Y-42358571D01*
X184560714Y-43858571D01*
X133275000Y-45408571D02*
X133275000Y-46622857D01*
X133203571Y-46765714D01*
X133132142Y-46837142D01*
X132989285Y-46908571D01*
X132775000Y-46908571D01*
X132632142Y-46837142D01*
X133275000Y-46337142D02*
X133132142Y-46408571D01*
X132846428Y-46408571D01*
X132703571Y-46337142D01*
X132632142Y-46265714D01*
X132560714Y-46122857D01*
X132560714Y-45694285D01*
X132632142Y-45551428D01*
X132703571Y-45480000D01*
X132846428Y-45408571D01*
X133132142Y-45408571D01*
X133275000Y-45480000D01*
X133989285Y-46408571D02*
X133989285Y-45408571D01*
X133989285Y-44908571D02*
X133917857Y-44980000D01*
X133989285Y-45051428D01*
X134060714Y-44980000D01*
X133989285Y-44908571D01*
X133989285Y-45051428D01*
X134489285Y-45408571D02*
X135060714Y-45408571D01*
X134703571Y-44908571D02*
X134703571Y-46194285D01*
X134775000Y-46337142D01*
X134917857Y-46408571D01*
X135060714Y-46408571D01*
X135560714Y-46408571D02*
X135560714Y-44908571D01*
X136203571Y-46408571D02*
X136203571Y-45622857D01*
X136132142Y-45480000D01*
X135989285Y-45408571D01*
X135775000Y-45408571D01*
X135632142Y-45480000D01*
X135560714Y-45551428D01*
X137560714Y-45408571D02*
X137560714Y-46408571D01*
X136917857Y-45408571D02*
X136917857Y-46194285D01*
X136989285Y-46337142D01*
X137132142Y-46408571D01*
X137346428Y-46408571D01*
X137489285Y-46337142D01*
X137560714Y-46265714D01*
X138275000Y-46408571D02*
X138275000Y-44908571D01*
X138275000Y-45480000D02*
X138417857Y-45408571D01*
X138703571Y-45408571D01*
X138846428Y-45480000D01*
X138917857Y-45551428D01*
X138989285Y-45694285D01*
X138989285Y-46122857D01*
X138917857Y-46265714D01*
X138846428Y-46337142D01*
X138703571Y-46408571D01*
X138417857Y-46408571D01*
X138275000Y-46337142D01*
X139632142Y-46265714D02*
X139703571Y-46337142D01*
X139632142Y-46408571D01*
X139560714Y-46337142D01*
X139632142Y-46265714D01*
X139632142Y-46408571D01*
X140989285Y-46337142D02*
X140846428Y-46408571D01*
X140560714Y-46408571D01*
X140417857Y-46337142D01*
X140346428Y-46265714D01*
X140275000Y-46122857D01*
X140275000Y-45694285D01*
X140346428Y-45551428D01*
X140417857Y-45480000D01*
X140560714Y-45408571D01*
X140846428Y-45408571D01*
X140989285Y-45480000D01*
X141846428Y-46408571D02*
X141703571Y-46337142D01*
X141632142Y-46265714D01*
X141560714Y-46122857D01*
X141560714Y-45694285D01*
X141632142Y-45551428D01*
X141703571Y-45480000D01*
X141846428Y-45408571D01*
X142060714Y-45408571D01*
X142203571Y-45480000D01*
X142275000Y-45551428D01*
X142346428Y-45694285D01*
X142346428Y-46122857D01*
X142275000Y-46265714D01*
X142203571Y-46337142D01*
X142060714Y-46408571D01*
X141846428Y-46408571D01*
X142989285Y-46408571D02*
X142989285Y-45408571D01*
X142989285Y-45551428D02*
X143060714Y-45480000D01*
X143203571Y-45408571D01*
X143417857Y-45408571D01*
X143560714Y-45480000D01*
X143632142Y-45622857D01*
X143632142Y-46408571D01*
X143632142Y-45622857D02*
X143703571Y-45480000D01*
X143846428Y-45408571D01*
X144060714Y-45408571D01*
X144203571Y-45480000D01*
X144275000Y-45622857D01*
X144275000Y-46408571D01*
X146060714Y-44837142D02*
X144775000Y-46765714D01*
X146560714Y-46408571D02*
X146560714Y-45408571D01*
X146560714Y-45694285D02*
X146632142Y-45551428D01*
X146703571Y-45480000D01*
X146846428Y-45408571D01*
X146989285Y-45408571D01*
X147489285Y-46408571D02*
X147489285Y-45408571D01*
X147489285Y-45694285D02*
X147560714Y-45551428D01*
X147632142Y-45480000D01*
X147775000Y-45408571D01*
X147917857Y-45408571D01*
X148632142Y-46408571D02*
X148489285Y-46337142D01*
X148417857Y-46265714D01*
X148346428Y-46122857D01*
X148346428Y-45694285D01*
X148417857Y-45551428D01*
X148489285Y-45480000D01*
X148632142Y-45408571D01*
X148846428Y-45408571D01*
X148989285Y-45480000D01*
X149060714Y-45551428D01*
X149132142Y-45694285D01*
X149132142Y-46122857D01*
X149060714Y-46265714D01*
X148989285Y-46337142D01*
X148846428Y-46408571D01*
X148632142Y-46408571D01*
X149560714Y-45408571D02*
X150132142Y-45408571D01*
X149775000Y-44908571D02*
X149775000Y-46194285D01*
X149846428Y-46337142D01*
X149989285Y-46408571D01*
X150132142Y-46408571D01*
X150632142Y-46408571D02*
X150632142Y-44908571D01*
X151275000Y-46408571D02*
X151275000Y-45622857D01*
X151203571Y-45480000D01*
X151060714Y-45408571D01*
X150846428Y-45408571D01*
X150703571Y-45480000D01*
X150632142Y-45551428D01*
X151846428Y-45408571D02*
X152132142Y-46408571D01*
X152417857Y-45694285D01*
X152703571Y-46408571D01*
X152989285Y-45408571D01*
X154132142Y-46337142D02*
X153989285Y-46408571D01*
X153703571Y-46408571D01*
X153560714Y-46337142D01*
X153489285Y-46194285D01*
X153489285Y-45622857D01*
X153560714Y-45480000D01*
X153703571Y-45408571D01*
X153989285Y-45408571D01*
X154132142Y-45480000D01*
X154203571Y-45622857D01*
X154203571Y-45765714D01*
X153489285Y-45908571D01*
X155060714Y-46408571D02*
X154917857Y-46337142D01*
X154846428Y-46194285D01*
X154846428Y-44908571D01*
X155846428Y-46408571D02*
X155703571Y-46337142D01*
X155632142Y-46194285D01*
X155632142Y-44908571D01*
X157489285Y-44837142D02*
X156203571Y-46765714D01*
X158846428Y-46408571D02*
X158346428Y-45694285D01*
X157989285Y-46408571D02*
X157989285Y-44908571D01*
X158560714Y-44908571D01*
X158703571Y-44980000D01*
X158775000Y-45051428D01*
X158846428Y-45194285D01*
X158846428Y-45408571D01*
X158775000Y-45551428D01*
X158703571Y-45622857D01*
X158560714Y-45694285D01*
X157989285Y-45694285D01*
X160346428Y-46265714D02*
X160275000Y-46337142D01*
X160060714Y-46408571D01*
X159917857Y-46408571D01*
X159703571Y-46337142D01*
X159560714Y-46194285D01*
X159489285Y-46051428D01*
X159417857Y-45765714D01*
X159417857Y-45551428D01*
X159489285Y-45265714D01*
X159560714Y-45122857D01*
X159703571Y-44980000D01*
X159917857Y-44908571D01*
X160060714Y-44908571D01*
X160275000Y-44980000D01*
X160346428Y-45051428D01*
X161775000Y-46408571D02*
X160917857Y-46408571D01*
X161346428Y-46408571D02*
X161346428Y-44908571D01*
X161203571Y-45122857D01*
X161060714Y-45265714D01*
X160917857Y-45337142D01*
X162632142Y-45551428D02*
X162489285Y-45480000D01*
X162417857Y-45408571D01*
X162346428Y-45265714D01*
X162346428Y-45194285D01*
X162417857Y-45051428D01*
X162489285Y-44980000D01*
X162632142Y-44908571D01*
X162917857Y-44908571D01*
X163060714Y-44980000D01*
X163132142Y-45051428D01*
X163203571Y-45194285D01*
X163203571Y-45265714D01*
X163132142Y-45408571D01*
X163060714Y-45480000D01*
X162917857Y-45551428D01*
X162632142Y-45551428D01*
X162489285Y-45622857D01*
X162417857Y-45694285D01*
X162346428Y-45837142D01*
X162346428Y-46122857D01*
X162417857Y-46265714D01*
X162489285Y-46337142D01*
X162632142Y-46408571D01*
X162917857Y-46408571D01*
X163060714Y-46337142D01*
X163132142Y-46265714D01*
X163203571Y-46122857D01*
X163203571Y-45837142D01*
X163132142Y-45694285D01*
X163060714Y-45622857D01*
X162917857Y-45551428D01*
X164132142Y-44908571D02*
X164275000Y-44908571D01*
X164417857Y-44980000D01*
X164489285Y-45051428D01*
X164560714Y-45194285D01*
X164632142Y-45480000D01*
X164632142Y-45837142D01*
X164560714Y-46122857D01*
X164489285Y-46265714D01*
X164417857Y-46337142D01*
X164275000Y-46408571D01*
X164132142Y-46408571D01*
X163989285Y-46337142D01*
X163917857Y-46265714D01*
X163846428Y-46122857D01*
X163775000Y-45837142D01*
X163775000Y-45480000D01*
X163846428Y-45194285D01*
X163917857Y-45051428D01*
X163989285Y-44980000D01*
X164132142Y-44908571D01*
X165203571Y-45051428D02*
X165275000Y-44980000D01*
X165417857Y-44908571D01*
X165775000Y-44908571D01*
X165917857Y-44980000D01*
X165989285Y-45051428D01*
X166060714Y-45194285D01*
X166060714Y-45337142D01*
X165989285Y-45551428D01*
X165132142Y-46408571D01*
X166060714Y-46408571D01*
X166703571Y-45837142D02*
X167846428Y-45837142D01*
X169417857Y-46265714D02*
X169346428Y-46337142D01*
X169132142Y-46408571D01*
X168989285Y-46408571D01*
X168775000Y-46337142D01*
X168632142Y-46194285D01*
X168560714Y-46051428D01*
X168489285Y-45765714D01*
X168489285Y-45551428D01*
X168560714Y-45265714D01*
X168632142Y-45122857D01*
X168775000Y-44980000D01*
X168989285Y-44908571D01*
X169132142Y-44908571D01*
X169346428Y-44980000D01*
X169417857Y-45051428D01*
X170275000Y-46408571D02*
X170132142Y-46337142D01*
X170060714Y-46265714D01*
X169989285Y-46122857D01*
X169989285Y-45694285D01*
X170060714Y-45551428D01*
X170132142Y-45480000D01*
X170275000Y-45408571D01*
X170489285Y-45408571D01*
X170632142Y-45480000D01*
X170703571Y-45551428D01*
X170775000Y-45694285D01*
X170775000Y-46122857D01*
X170703571Y-46265714D01*
X170632142Y-46337142D01*
X170489285Y-46408571D01*
X170275000Y-46408571D01*
X171346428Y-46337142D02*
X171489285Y-46408571D01*
X171775000Y-46408571D01*
X171917857Y-46337142D01*
X171989285Y-46194285D01*
X171989285Y-46122857D01*
X171917857Y-45980000D01*
X171775000Y-45908571D01*
X171560714Y-45908571D01*
X171417857Y-45837142D01*
X171346428Y-45694285D01*
X171346428Y-45622857D01*
X171417857Y-45480000D01*
X171560714Y-45408571D01*
X171775000Y-45408571D01*
X171917857Y-45480000D01*
X172632142Y-46408571D02*
X172632142Y-45408571D01*
X172632142Y-45551428D02*
X172703571Y-45480000D01*
X172846428Y-45408571D01*
X173060714Y-45408571D01*
X173203571Y-45480000D01*
X173275000Y-45622857D01*
X173275000Y-46408571D01*
X173275000Y-45622857D02*
X173346428Y-45480000D01*
X173489285Y-45408571D01*
X173703571Y-45408571D01*
X173846428Y-45480000D01*
X173917857Y-45622857D01*
X173917857Y-46408571D01*
X175275000Y-46408571D02*
X175275000Y-45622857D01*
X175203571Y-45480000D01*
X175060714Y-45408571D01*
X174775000Y-45408571D01*
X174632142Y-45480000D01*
X175275000Y-46337142D02*
X175132142Y-46408571D01*
X174775000Y-46408571D01*
X174632142Y-46337142D01*
X174560714Y-46194285D01*
X174560714Y-46051428D01*
X174632142Y-45908571D01*
X174775000Y-45837142D01*
X175132142Y-45837142D01*
X175275000Y-45765714D01*
X176632142Y-46337142D02*
X176489285Y-46408571D01*
X176203571Y-46408571D01*
X176060714Y-46337142D01*
X175989285Y-46265714D01*
X175917857Y-46122857D01*
X175917857Y-45694285D01*
X175989285Y-45551428D01*
X176060714Y-45480000D01*
X176203571Y-45408571D01*
X176489285Y-45408571D01*
X176632142Y-45480000D01*
X177275000Y-45837142D02*
X178417857Y-45837142D01*
X179132142Y-45622857D02*
X179632142Y-45622857D01*
X179846428Y-46408571D02*
X179132142Y-46408571D01*
X179132142Y-44908571D01*
X179846428Y-44908571D01*
X181203571Y-46408571D02*
X180489285Y-46408571D01*
X180489285Y-44908571D01*
X182203571Y-45622857D02*
X181703571Y-45622857D01*
X181703571Y-46408571D02*
X181703571Y-44908571D01*
X182417857Y-44908571D01*
D11*
X196790000Y-105350000D02*
X198120000Y-105350000D01*
X196790000Y-106680000D02*
X196790000Y-105350000D01*
X196790000Y-107950000D02*
X199450000Y-107950000D01*
X199450000Y-107950000D02*
X199450000Y-110550000D01*
X196790000Y-107950000D02*
X196790000Y-110550000D01*
X196790000Y-110550000D02*
X199450000Y-110550000D01*
X200600000Y-105350000D02*
X201930000Y-105350000D01*
X200600000Y-106680000D02*
X200600000Y-105350000D01*
X200600000Y-107950000D02*
X203260000Y-107950000D01*
X203260000Y-107950000D02*
X203260000Y-110550000D01*
X200600000Y-107950000D02*
X200600000Y-110550000D01*
X200600000Y-110550000D02*
X203260000Y-110550000D01*
X192980000Y-105350000D02*
X194310000Y-105350000D01*
X192980000Y-106680000D02*
X192980000Y-105350000D01*
X192980000Y-107950000D02*
X195640000Y-107950000D01*
X195640000Y-107950000D02*
X195640000Y-110550000D01*
X192980000Y-107950000D02*
X192980000Y-110550000D01*
X192980000Y-110550000D02*
X195640000Y-110550000D01*
X189170000Y-110550000D02*
X191830000Y-110550000D01*
X189170000Y-107950000D02*
X189170000Y-110550000D01*
X191830000Y-107950000D02*
X191830000Y-110550000D01*
X189170000Y-107950000D02*
X191830000Y-107950000D01*
X189170000Y-106680000D02*
X189170000Y-105350000D01*
X189170000Y-105350000D02*
X190500000Y-105350000D01*
X142470000Y-85090000D02*
G75*
G03*
X142470000Y-85090000I-1500000J0D01*
G01*
X142470000Y-77470000D02*
G75*
G03*
X142470000Y-77470000I-1500000J0D01*
G01*
X142470000Y-81280000D02*
G75*
G03*
X142470000Y-81280000I-1500000J0D01*
G01*
X142470000Y-73660000D02*
G75*
G03*
X142470000Y-73660000I-1500000J0D01*
G01*
X157710000Y-129540000D02*
G75*
G03*
X157710000Y-129540000I-1500000J0D01*
G01*
X179300000Y-129540000D02*
G75*
G03*
X179300000Y-129540000I-1500000J0D01*
G01*
X173290000Y-76770000D02*
X174690000Y-76770000D01*
X174690000Y-76770000D02*
X174690000Y-78170000D01*
X174690000Y-78170000D02*
X173290000Y-78170000D01*
X173290000Y-78170000D02*
X173290000Y-76770000D01*
X172020000Y-79310000D02*
X173420000Y-79310000D01*
X173420000Y-79310000D02*
X173420000Y-80710000D01*
X173420000Y-80710000D02*
X172020000Y-80710000D01*
X172020000Y-80710000D02*
X172020000Y-79310000D01*
X170750000Y-81850000D02*
X172150000Y-81850000D01*
X172150000Y-81850000D02*
X172150000Y-83250000D01*
X172150000Y-83250000D02*
X170750000Y-83250000D01*
X170750000Y-83250000D02*
X170750000Y-81850000D01*
X169480000Y-84390000D02*
X170880000Y-84390000D01*
X170880000Y-84390000D02*
X170880000Y-85790000D01*
X170880000Y-85790000D02*
X169480000Y-85790000D01*
X169480000Y-85790000D02*
X169480000Y-84390000D01*
X168210000Y-86930000D02*
X169610000Y-86930000D01*
X169610000Y-86930000D02*
X169610000Y-88330000D01*
X169610000Y-88330000D02*
X168210000Y-88330000D01*
X168210000Y-88330000D02*
X168210000Y-86930000D01*
X166940000Y-89470000D02*
X168340000Y-89470000D01*
X168340000Y-89470000D02*
X168340000Y-90870000D01*
X168340000Y-90870000D02*
X166940000Y-90870000D01*
X166940000Y-90870000D02*
X166940000Y-89470000D01*
X165670000Y-102170000D02*
X167070000Y-102170000D01*
X167070000Y-102170000D02*
X167070000Y-103570000D01*
X167070000Y-103570000D02*
X165670000Y-103570000D01*
X165670000Y-103570000D02*
X165670000Y-102170000D01*
X164400000Y-104710000D02*
X165800000Y-104710000D01*
X165800000Y-104710000D02*
X165800000Y-106110000D01*
X165800000Y-106110000D02*
X164400000Y-106110000D01*
X164400000Y-106110000D02*
X164400000Y-104710000D01*
X155210000Y-60900000D02*
X149750000Y-60900000D01*
X149750000Y-60900000D02*
X149750000Y-96580000D01*
X149750000Y-96580000D02*
X162670000Y-96580000D01*
X162670000Y-96580000D02*
X162670000Y-60900000D01*
X162670000Y-60900000D02*
X157210000Y-60900000D01*
X147260000Y-60840000D02*
X147260000Y-96640000D01*
X147260000Y-96640000D02*
X165160000Y-96640000D01*
X165160000Y-96640000D02*
X165160000Y-60840000D01*
X165160000Y-60840000D02*
X147260000Y-60840000D01*
X157210000Y-60900000D02*
G75*
G02*
X155210000Y-60900000I-1000000J0D01*
G01*
X205800000Y-137330000D02*
X106620000Y-137330000D01*
X106620000Y-137330000D02*
X106620000Y-139990000D01*
X106620000Y-139990000D02*
X205800000Y-139990000D01*
X205800000Y-139990000D02*
X205800000Y-137330000D01*
X204850000Y-139990000D02*
X204850000Y-145990000D01*
X204850000Y-145990000D02*
X204090000Y-145990000D01*
X204090000Y-145990000D02*
X204090000Y-139990000D01*
X204790000Y-139990000D02*
X204790000Y-145990000D01*
X204670000Y-139990000D02*
X204670000Y-145990000D01*
X204550000Y-139990000D02*
X204550000Y-145990000D01*
X204430000Y-139990000D02*
X204430000Y-145990000D01*
X204310000Y-139990000D02*
X204310000Y-145990000D01*
X204190000Y-139990000D02*
X204190000Y-145990000D01*
X204850000Y-137000000D02*
X204850000Y-137330000D01*
X204090000Y-137000000D02*
X204090000Y-137330000D01*
X203200000Y-137330000D02*
X203200000Y-139990000D01*
X202310000Y-139990000D02*
X202310000Y-145990000D01*
X202310000Y-145990000D02*
X201550000Y-145990000D01*
X201550000Y-145990000D02*
X201550000Y-139990000D01*
X202310000Y-136932929D02*
X202310000Y-137330000D01*
X201550000Y-136932929D02*
X201550000Y-137330000D01*
X200660000Y-137330000D02*
X200660000Y-139990000D01*
X199770000Y-139990000D02*
X199770000Y-145990000D01*
X199770000Y-145990000D02*
X199010000Y-145990000D01*
X199010000Y-145990000D02*
X199010000Y-139990000D01*
X199770000Y-136932929D02*
X199770000Y-137330000D01*
X199010000Y-136932929D02*
X199010000Y-137330000D01*
X198120000Y-137330000D02*
X198120000Y-139990000D01*
X197230000Y-139990000D02*
X197230000Y-145990000D01*
X197230000Y-145990000D02*
X196470000Y-145990000D01*
X196470000Y-145990000D02*
X196470000Y-139990000D01*
X197230000Y-136932929D02*
X197230000Y-137330000D01*
X196470000Y-136932929D02*
X196470000Y-137330000D01*
X195580000Y-137330000D02*
X195580000Y-139990000D01*
X194690000Y-139990000D02*
X194690000Y-145990000D01*
X194690000Y-145990000D02*
X193930000Y-145990000D01*
X193930000Y-145990000D02*
X193930000Y-139990000D01*
X194690000Y-136932929D02*
X194690000Y-137330000D01*
X193930000Y-136932929D02*
X193930000Y-137330000D01*
X193040000Y-137330000D02*
X193040000Y-139990000D01*
X192150000Y-139990000D02*
X192150000Y-145990000D01*
X192150000Y-145990000D02*
X191390000Y-145990000D01*
X191390000Y-145990000D02*
X191390000Y-139990000D01*
X192150000Y-136932929D02*
X192150000Y-137330000D01*
X191390000Y-136932929D02*
X191390000Y-137330000D01*
X190500000Y-137330000D02*
X190500000Y-139990000D01*
X189610000Y-139990000D02*
X189610000Y-145990000D01*
X189610000Y-145990000D02*
X188850000Y-145990000D01*
X188850000Y-145990000D02*
X188850000Y-139990000D01*
X189610000Y-136932929D02*
X189610000Y-137330000D01*
X188850000Y-136932929D02*
X188850000Y-137330000D01*
X187960000Y-137330000D02*
X187960000Y-139990000D01*
X187070000Y-139990000D02*
X187070000Y-145990000D01*
X187070000Y-145990000D02*
X186310000Y-145990000D01*
X186310000Y-145990000D02*
X186310000Y-139990000D01*
X187070000Y-136932929D02*
X187070000Y-137330000D01*
X186310000Y-136932929D02*
X186310000Y-137330000D01*
X185420000Y-137330000D02*
X185420000Y-139990000D01*
X184530000Y-139990000D02*
X184530000Y-145990000D01*
X184530000Y-145990000D02*
X183770000Y-145990000D01*
X183770000Y-145990000D02*
X183770000Y-139990000D01*
X184530000Y-136932929D02*
X184530000Y-137330000D01*
X183770000Y-136932929D02*
X183770000Y-137330000D01*
X182880000Y-137330000D02*
X182880000Y-139990000D01*
X181990000Y-139990000D02*
X181990000Y-145990000D01*
X181990000Y-145990000D02*
X181230000Y-145990000D01*
X181230000Y-145990000D02*
X181230000Y-139990000D01*
X181990000Y-136932929D02*
X181990000Y-137330000D01*
X181230000Y-136932929D02*
X181230000Y-137330000D01*
X180340000Y-137330000D02*
X180340000Y-139990000D01*
X179450000Y-139990000D02*
X179450000Y-145990000D01*
X179450000Y-145990000D02*
X178690000Y-145990000D01*
X178690000Y-145990000D02*
X178690000Y-139990000D01*
X179450000Y-136932929D02*
X179450000Y-137330000D01*
X178690000Y-136932929D02*
X178690000Y-137330000D01*
X177800000Y-137330000D02*
X177800000Y-139990000D01*
X176910000Y-139990000D02*
X176910000Y-145990000D01*
X176910000Y-145990000D02*
X176150000Y-145990000D01*
X176150000Y-145990000D02*
X176150000Y-139990000D01*
X176910000Y-136932929D02*
X176910000Y-137330000D01*
X176150000Y-136932929D02*
X176150000Y-137330000D01*
X175260000Y-137330000D02*
X175260000Y-139990000D01*
X174370000Y-139990000D02*
X174370000Y-145990000D01*
X174370000Y-145990000D02*
X173610000Y-145990000D01*
X173610000Y-145990000D02*
X173610000Y-139990000D01*
X174370000Y-136932929D02*
X174370000Y-137330000D01*
X173610000Y-136932929D02*
X173610000Y-137330000D01*
X172720000Y-137330000D02*
X172720000Y-139990000D01*
X171830000Y-139990000D02*
X171830000Y-145990000D01*
X171830000Y-145990000D02*
X171070000Y-145990000D01*
X171070000Y-145990000D02*
X171070000Y-139990000D01*
X171830000Y-136932929D02*
X171830000Y-137330000D01*
X171070000Y-136932929D02*
X171070000Y-137330000D01*
X170180000Y-137330000D02*
X170180000Y-139990000D01*
X169290000Y-139990000D02*
X169290000Y-145990000D01*
X169290000Y-145990000D02*
X168530000Y-145990000D01*
X168530000Y-145990000D02*
X168530000Y-139990000D01*
X169290000Y-136932929D02*
X169290000Y-137330000D01*
X168530000Y-136932929D02*
X168530000Y-137330000D01*
X167640000Y-137330000D02*
X167640000Y-139990000D01*
X166750000Y-139990000D02*
X166750000Y-145990000D01*
X166750000Y-145990000D02*
X165990000Y-145990000D01*
X165990000Y-145990000D02*
X165990000Y-139990000D01*
X166750000Y-136932929D02*
X166750000Y-137330000D01*
X165990000Y-136932929D02*
X165990000Y-137330000D01*
X165100000Y-137330000D02*
X165100000Y-139990000D01*
X164210000Y-139990000D02*
X164210000Y-145990000D01*
X164210000Y-145990000D02*
X163450000Y-145990000D01*
X163450000Y-145990000D02*
X163450000Y-139990000D01*
X164210000Y-136932929D02*
X164210000Y-137330000D01*
X163450000Y-136932929D02*
X163450000Y-137330000D01*
X162560000Y-137330000D02*
X162560000Y-139990000D01*
X161670000Y-139990000D02*
X161670000Y-145990000D01*
X161670000Y-145990000D02*
X160910000Y-145990000D01*
X160910000Y-145990000D02*
X160910000Y-139990000D01*
X161670000Y-136932929D02*
X161670000Y-137330000D01*
X160910000Y-136932929D02*
X160910000Y-137330000D01*
X160020000Y-137330000D02*
X160020000Y-139990000D01*
X159130000Y-139990000D02*
X159130000Y-145990000D01*
X159130000Y-145990000D02*
X158370000Y-145990000D01*
X158370000Y-145990000D02*
X158370000Y-139990000D01*
X159130000Y-136932929D02*
X159130000Y-137330000D01*
X158370000Y-136932929D02*
X158370000Y-137330000D01*
X157480000Y-137330000D02*
X157480000Y-139990000D01*
X156590000Y-139990000D02*
X156590000Y-145990000D01*
X156590000Y-145990000D02*
X155830000Y-145990000D01*
X155830000Y-145990000D02*
X155830000Y-139990000D01*
X156590000Y-136932929D02*
X156590000Y-137330000D01*
X155830000Y-136932929D02*
X155830000Y-137330000D01*
X154940000Y-137330000D02*
X154940000Y-139990000D01*
X154050000Y-139990000D02*
X154050000Y-145990000D01*
X154050000Y-145990000D02*
X153290000Y-145990000D01*
X153290000Y-145990000D02*
X153290000Y-139990000D01*
X154050000Y-136932929D02*
X154050000Y-137330000D01*
X153290000Y-136932929D02*
X153290000Y-137330000D01*
X152400000Y-137330000D02*
X152400000Y-139990000D01*
X151510000Y-139990000D02*
X151510000Y-145990000D01*
X151510000Y-145990000D02*
X150750000Y-145990000D01*
X150750000Y-145990000D02*
X150750000Y-139990000D01*
X151510000Y-136932929D02*
X151510000Y-137330000D01*
X150750000Y-136932929D02*
X150750000Y-137330000D01*
X149860000Y-137330000D02*
X149860000Y-139990000D01*
X148970000Y-139990000D02*
X148970000Y-145990000D01*
X148970000Y-145990000D02*
X148210000Y-145990000D01*
X148210000Y-145990000D02*
X148210000Y-139990000D01*
X148970000Y-136932929D02*
X148970000Y-137330000D01*
X148210000Y-136932929D02*
X148210000Y-137330000D01*
X147320000Y-137330000D02*
X147320000Y-139990000D01*
X146430000Y-139990000D02*
X146430000Y-145990000D01*
X146430000Y-145990000D02*
X145670000Y-145990000D01*
X145670000Y-145990000D02*
X145670000Y-139990000D01*
X146430000Y-136932929D02*
X146430000Y-137330000D01*
X145670000Y-136932929D02*
X145670000Y-137330000D01*
X144780000Y-137330000D02*
X144780000Y-139990000D01*
X143890000Y-139990000D02*
X143890000Y-145990000D01*
X143890000Y-145990000D02*
X143130000Y-145990000D01*
X143130000Y-145990000D02*
X143130000Y-139990000D01*
X143890000Y-136932929D02*
X143890000Y-137330000D01*
X143130000Y-136932929D02*
X143130000Y-137330000D01*
X142240000Y-137330000D02*
X142240000Y-139990000D01*
X141350000Y-139990000D02*
X141350000Y-145990000D01*
X141350000Y-145990000D02*
X140590000Y-145990000D01*
X140590000Y-145990000D02*
X140590000Y-139990000D01*
X141350000Y-136932929D02*
X141350000Y-137330000D01*
X140590000Y-136932929D02*
X140590000Y-137330000D01*
X139700000Y-137330000D02*
X139700000Y-139990000D01*
X138810000Y-139990000D02*
X138810000Y-145990000D01*
X138810000Y-145990000D02*
X138050000Y-145990000D01*
X138050000Y-145990000D02*
X138050000Y-139990000D01*
X138810000Y-136932929D02*
X138810000Y-137330000D01*
X138050000Y-136932929D02*
X138050000Y-137330000D01*
X137160000Y-137330000D02*
X137160000Y-139990000D01*
X136270000Y-139990000D02*
X136270000Y-145990000D01*
X136270000Y-145990000D02*
X135510000Y-145990000D01*
X135510000Y-145990000D02*
X135510000Y-139990000D01*
X136270000Y-136932929D02*
X136270000Y-137330000D01*
X135510000Y-136932929D02*
X135510000Y-137330000D01*
X134620000Y-137330000D02*
X134620000Y-139990000D01*
X133730000Y-139990000D02*
X133730000Y-145990000D01*
X133730000Y-145990000D02*
X132970000Y-145990000D01*
X132970000Y-145990000D02*
X132970000Y-139990000D01*
X133730000Y-136932929D02*
X133730000Y-137330000D01*
X132970000Y-136932929D02*
X132970000Y-137330000D01*
X132080000Y-137330000D02*
X132080000Y-139990000D01*
X131190000Y-139990000D02*
X131190000Y-145990000D01*
X131190000Y-145990000D02*
X130430000Y-145990000D01*
X130430000Y-145990000D02*
X130430000Y-139990000D01*
X131190000Y-136932929D02*
X131190000Y-137330000D01*
X130430000Y-136932929D02*
X130430000Y-137330000D01*
X129540000Y-137330000D02*
X129540000Y-139990000D01*
X128650000Y-139990000D02*
X128650000Y-145990000D01*
X128650000Y-145990000D02*
X127890000Y-145990000D01*
X127890000Y-145990000D02*
X127890000Y-139990000D01*
X128650000Y-136932929D02*
X128650000Y-137330000D01*
X127890000Y-136932929D02*
X127890000Y-137330000D01*
X127000000Y-137330000D02*
X127000000Y-139990000D01*
X126110000Y-139990000D02*
X126110000Y-145990000D01*
X126110000Y-145990000D02*
X125350000Y-145990000D01*
X125350000Y-145990000D02*
X125350000Y-139990000D01*
X126110000Y-136932929D02*
X126110000Y-137330000D01*
X125350000Y-136932929D02*
X125350000Y-137330000D01*
X124460000Y-137330000D02*
X124460000Y-139990000D01*
X123570000Y-139990000D02*
X123570000Y-145990000D01*
X123570000Y-145990000D02*
X122810000Y-145990000D01*
X122810000Y-145990000D02*
X122810000Y-139990000D01*
X123570000Y-136932929D02*
X123570000Y-137330000D01*
X122810000Y-136932929D02*
X122810000Y-137330000D01*
X121920000Y-137330000D02*
X121920000Y-139990000D01*
X121030000Y-139990000D02*
X121030000Y-145990000D01*
X121030000Y-145990000D02*
X120270000Y-145990000D01*
X120270000Y-145990000D02*
X120270000Y-139990000D01*
X121030000Y-136932929D02*
X121030000Y-137330000D01*
X120270000Y-136932929D02*
X120270000Y-137330000D01*
X119380000Y-137330000D02*
X119380000Y-139990000D01*
X118490000Y-139990000D02*
X118490000Y-145990000D01*
X118490000Y-145990000D02*
X117730000Y-145990000D01*
X117730000Y-145990000D02*
X117730000Y-139990000D01*
X118490000Y-136932929D02*
X118490000Y-137330000D01*
X117730000Y-136932929D02*
X117730000Y-137330000D01*
X116840000Y-137330000D02*
X116840000Y-139990000D01*
X115950000Y-139990000D02*
X115950000Y-145990000D01*
X115950000Y-145990000D02*
X115190000Y-145990000D01*
X115190000Y-145990000D02*
X115190000Y-139990000D01*
X115950000Y-136932929D02*
X115950000Y-137330000D01*
X115190000Y-136932929D02*
X115190000Y-137330000D01*
X114300000Y-137330000D02*
X114300000Y-139990000D01*
X113410000Y-139990000D02*
X113410000Y-145990000D01*
X113410000Y-145990000D02*
X112650000Y-145990000D01*
X112650000Y-145990000D02*
X112650000Y-139990000D01*
X113410000Y-136932929D02*
X113410000Y-137330000D01*
X112650000Y-136932929D02*
X112650000Y-137330000D01*
X111760000Y-137330000D02*
X111760000Y-139990000D01*
X110870000Y-139990000D02*
X110870000Y-145990000D01*
X110870000Y-145990000D02*
X110110000Y-145990000D01*
X110110000Y-145990000D02*
X110110000Y-139990000D01*
X110870000Y-136932929D02*
X110870000Y-137330000D01*
X110110000Y-136932929D02*
X110110000Y-137330000D01*
X109220000Y-137330000D02*
X109220000Y-139990000D01*
X108330000Y-139990000D02*
X108330000Y-145990000D01*
X108330000Y-145990000D02*
X107570000Y-145990000D01*
X107570000Y-145990000D02*
X107570000Y-139990000D01*
X108330000Y-136932929D02*
X108330000Y-137330000D01*
X107570000Y-136932929D02*
X107570000Y-137330000D01*
X204470000Y-134620000D02*
X205740000Y-134620000D01*
X205740000Y-134620000D02*
X205740000Y-135890000D01*
X165200000Y-129540000D02*
G75*
G03*
X165200000Y-129540000I-2620000J0D01*
G01*
X162580000Y-132120000D02*
X162580000Y-126960000D01*
X162540000Y-132120000D02*
X162540000Y-126960000D01*
X162500000Y-132119000D02*
X162500000Y-126961000D01*
X162460000Y-132118000D02*
X162460000Y-126962000D01*
X162420000Y-132116000D02*
X162420000Y-126964000D01*
X162380000Y-132113000D02*
X162380000Y-126967000D01*
X162340000Y-132109000D02*
X162340000Y-130580000D01*
X162340000Y-128500000D02*
X162340000Y-126971000D01*
X162300000Y-132105000D02*
X162300000Y-130580000D01*
X162300000Y-128500000D02*
X162300000Y-126975000D01*
X162260000Y-132101000D02*
X162260000Y-130580000D01*
X162260000Y-128500000D02*
X162260000Y-126979000D01*
X162220000Y-132096000D02*
X162220000Y-130580000D01*
X162220000Y-128500000D02*
X162220000Y-126984000D01*
X162180000Y-132090000D02*
X162180000Y-130580000D01*
X162180000Y-128500000D02*
X162180000Y-126990000D01*
X162140000Y-132083000D02*
X162140000Y-130580000D01*
X162140000Y-128500000D02*
X162140000Y-126997000D01*
X162100000Y-132076000D02*
X162100000Y-130580000D01*
X162100000Y-128500000D02*
X162100000Y-127004000D01*
X162060000Y-132068000D02*
X162060000Y-130580000D01*
X162060000Y-128500000D02*
X162060000Y-127012000D01*
X162020000Y-132060000D02*
X162020000Y-130580000D01*
X162020000Y-128500000D02*
X162020000Y-127020000D01*
X161980000Y-132051000D02*
X161980000Y-130580000D01*
X161980000Y-128500000D02*
X161980000Y-127029000D01*
X161940000Y-132041000D02*
X161940000Y-130580000D01*
X161940000Y-128500000D02*
X161940000Y-127039000D01*
X161900000Y-132031000D02*
X161900000Y-130580000D01*
X161900000Y-128500000D02*
X161900000Y-127049000D01*
X161859000Y-132020000D02*
X161859000Y-130580000D01*
X161859000Y-128500000D02*
X161859000Y-127060000D01*
X161819000Y-132008000D02*
X161819000Y-130580000D01*
X161819000Y-128500000D02*
X161819000Y-127072000D01*
X161779000Y-131995000D02*
X161779000Y-130580000D01*
X161779000Y-128500000D02*
X161779000Y-127085000D01*
X161739000Y-131982000D02*
X161739000Y-130580000D01*
X161739000Y-128500000D02*
X161739000Y-127098000D01*
X161699000Y-131968000D02*
X161699000Y-130580000D01*
X161699000Y-128500000D02*
X161699000Y-127112000D01*
X161659000Y-131954000D02*
X161659000Y-130580000D01*
X161659000Y-128500000D02*
X161659000Y-127126000D01*
X161619000Y-131938000D02*
X161619000Y-130580000D01*
X161619000Y-128500000D02*
X161619000Y-127142000D01*
X161579000Y-131922000D02*
X161579000Y-130580000D01*
X161579000Y-128500000D02*
X161579000Y-127158000D01*
X161539000Y-131905000D02*
X161539000Y-130580000D01*
X161539000Y-128500000D02*
X161539000Y-127175000D01*
X161499000Y-131888000D02*
X161499000Y-130580000D01*
X161499000Y-128500000D02*
X161499000Y-127192000D01*
X161459000Y-131869000D02*
X161459000Y-130580000D01*
X161459000Y-128500000D02*
X161459000Y-127211000D01*
X161419000Y-131850000D02*
X161419000Y-130580000D01*
X161419000Y-128500000D02*
X161419000Y-127230000D01*
X161379000Y-131830000D02*
X161379000Y-130580000D01*
X161379000Y-128500000D02*
X161379000Y-127250000D01*
X161339000Y-131808000D02*
X161339000Y-130580000D01*
X161339000Y-128500000D02*
X161339000Y-127272000D01*
X161299000Y-131787000D02*
X161299000Y-130580000D01*
X161299000Y-128500000D02*
X161299000Y-127293000D01*
X161259000Y-131764000D02*
X161259000Y-130580000D01*
X161259000Y-128500000D02*
X161259000Y-127316000D01*
X161219000Y-131740000D02*
X161219000Y-130580000D01*
X161219000Y-128500000D02*
X161219000Y-127340000D01*
X161179000Y-131715000D02*
X161179000Y-130580000D01*
X161179000Y-128500000D02*
X161179000Y-127365000D01*
X161139000Y-131689000D02*
X161139000Y-130580000D01*
X161139000Y-128500000D02*
X161139000Y-127391000D01*
X161099000Y-131662000D02*
X161099000Y-130580000D01*
X161099000Y-128500000D02*
X161099000Y-127418000D01*
X161059000Y-131635000D02*
X161059000Y-130580000D01*
X161059000Y-128500000D02*
X161059000Y-127445000D01*
X161019000Y-131605000D02*
X161019000Y-130580000D01*
X161019000Y-128500000D02*
X161019000Y-127475000D01*
X160979000Y-131575000D02*
X160979000Y-130580000D01*
X160979000Y-128500000D02*
X160979000Y-127505000D01*
X160939000Y-131544000D02*
X160939000Y-130580000D01*
X160939000Y-128500000D02*
X160939000Y-127536000D01*
X160899000Y-131511000D02*
X160899000Y-130580000D01*
X160899000Y-128500000D02*
X160899000Y-127569000D01*
X160859000Y-131477000D02*
X160859000Y-130580000D01*
X160859000Y-128500000D02*
X160859000Y-127603000D01*
X160819000Y-131441000D02*
X160819000Y-130580000D01*
X160819000Y-128500000D02*
X160819000Y-127639000D01*
X160779000Y-131404000D02*
X160779000Y-130580000D01*
X160779000Y-128500000D02*
X160779000Y-127676000D01*
X160739000Y-131366000D02*
X160739000Y-130580000D01*
X160739000Y-128500000D02*
X160739000Y-127714000D01*
X160699000Y-131325000D02*
X160699000Y-130580000D01*
X160699000Y-128500000D02*
X160699000Y-127755000D01*
X160659000Y-131283000D02*
X160659000Y-130580000D01*
X160659000Y-128500000D02*
X160659000Y-127797000D01*
X160619000Y-131239000D02*
X160619000Y-130580000D01*
X160619000Y-128500000D02*
X160619000Y-127841000D01*
X160579000Y-131193000D02*
X160579000Y-130580000D01*
X160579000Y-128500000D02*
X160579000Y-127887000D01*
X160539000Y-131145000D02*
X160539000Y-130580000D01*
X160539000Y-128500000D02*
X160539000Y-127935000D01*
X160499000Y-131094000D02*
X160499000Y-130580000D01*
X160499000Y-128500000D02*
X160499000Y-127986000D01*
X160459000Y-131040000D02*
X160459000Y-130580000D01*
X160459000Y-128500000D02*
X160459000Y-128040000D01*
X160419000Y-130983000D02*
X160419000Y-130580000D01*
X160419000Y-128500000D02*
X160419000Y-128097000D01*
X160379000Y-130923000D02*
X160379000Y-130580000D01*
X160379000Y-128500000D02*
X160379000Y-128157000D01*
X160339000Y-130859000D02*
X160339000Y-130580000D01*
X160339000Y-128500000D02*
X160339000Y-128221000D01*
X160299000Y-130791000D02*
X160299000Y-130580000D01*
X160299000Y-128500000D02*
X160299000Y-128289000D01*
X160259000Y-130718000D02*
X160259000Y-128362000D01*
X160219000Y-130638000D02*
X160219000Y-128442000D01*
X160179000Y-130551000D02*
X160179000Y-128529000D01*
X160139000Y-130455000D02*
X160139000Y-128625000D01*
X160099000Y-130345000D02*
X160099000Y-128735000D01*
X160059000Y-130217000D02*
X160059000Y-128863000D01*
X160019000Y-130058000D02*
X160019000Y-129022000D01*
X159979000Y-129824000D02*
X159979000Y-129256000D01*
X165384775Y-131015000D02*
X164884775Y-131015000D01*
X165134775Y-131265000D02*
X165134775Y-130765000D01*
X204216000Y-41910000D02*
G75*
G03*
X204216000Y-41910000I-2286000J0D01*
G01*
X112776000Y-41910000D02*
G75*
G03*
X112776000Y-41910000I-2286000J0D01*
G01*
X163740000Y-58460000D02*
X158920000Y-58460000D01*
X163740000Y-55840000D02*
X158920000Y-55840000D01*
X163740000Y-58460000D02*
X163740000Y-58146000D01*
X163740000Y-56154000D02*
X163740000Y-55840000D01*
X158920000Y-58460000D02*
X158920000Y-58146000D01*
X158920000Y-56154000D02*
X158920000Y-55840000D01*
D12*
X197572380Y-103282380D02*
X198286666Y-103282380D01*
X198429523Y-103330000D01*
X198524761Y-103425238D01*
X198572380Y-103568095D01*
X198572380Y-103663333D01*
X198572380Y-102806190D02*
X197905714Y-102806190D01*
X198000952Y-102806190D02*
X197953333Y-102758571D01*
X197905714Y-102663333D01*
X197905714Y-102520476D01*
X197953333Y-102425238D01*
X198048571Y-102377619D01*
X198572380Y-102377619D01*
X198048571Y-102377619D02*
X197953333Y-102330000D01*
X197905714Y-102234761D01*
X197905714Y-102091904D01*
X197953333Y-101996666D01*
X198048571Y-101949047D01*
X198572380Y-101949047D01*
X197905714Y-101472857D02*
X198905714Y-101472857D01*
X197953333Y-101472857D02*
X197905714Y-101377619D01*
X197905714Y-101187142D01*
X197953333Y-101091904D01*
X198000952Y-101044285D01*
X198096190Y-100996666D01*
X198381904Y-100996666D01*
X198477142Y-101044285D01*
X198524761Y-101091904D01*
X198572380Y-101187142D01*
X198572380Y-101377619D01*
X198524761Y-101472857D01*
X198191428Y-100568095D02*
X198191428Y-99806190D01*
X198048571Y-99330000D02*
X198048571Y-98996666D01*
X198572380Y-98853809D02*
X198572380Y-99330000D01*
X197572380Y-99330000D01*
X197572380Y-98853809D01*
X198048571Y-98091904D02*
X198048571Y-98425238D01*
X198572380Y-98425238D02*
X197572380Y-98425238D01*
X197572380Y-97949047D01*
X197667619Y-97615714D02*
X197620000Y-97568095D01*
X197572380Y-97472857D01*
X197572380Y-97234761D01*
X197620000Y-97139523D01*
X197667619Y-97091904D01*
X197762857Y-97044285D01*
X197858095Y-97044285D01*
X198000952Y-97091904D01*
X198572380Y-97663333D01*
X198572380Y-97044285D01*
X201382380Y-103282380D02*
X202096666Y-103282380D01*
X202239523Y-103330000D01*
X202334761Y-103425238D01*
X202382380Y-103568095D01*
X202382380Y-103663333D01*
X202382380Y-102806190D02*
X201715714Y-102806190D01*
X201810952Y-102806190D02*
X201763333Y-102758571D01*
X201715714Y-102663333D01*
X201715714Y-102520476D01*
X201763333Y-102425238D01*
X201858571Y-102377619D01*
X202382380Y-102377619D01*
X201858571Y-102377619D02*
X201763333Y-102330000D01*
X201715714Y-102234761D01*
X201715714Y-102091904D01*
X201763333Y-101996666D01*
X201858571Y-101949047D01*
X202382380Y-101949047D01*
X201715714Y-101472857D02*
X202715714Y-101472857D01*
X201763333Y-101472857D02*
X201715714Y-101377619D01*
X201715714Y-101187142D01*
X201763333Y-101091904D01*
X201810952Y-101044285D01*
X201906190Y-100996666D01*
X202191904Y-100996666D01*
X202287142Y-101044285D01*
X202334761Y-101091904D01*
X202382380Y-101187142D01*
X202382380Y-101377619D01*
X202334761Y-101472857D01*
X202001428Y-100568095D02*
X202001428Y-99806190D01*
X201858571Y-99330000D02*
X201858571Y-98996666D01*
X202382380Y-98853809D02*
X202382380Y-99330000D01*
X201382380Y-99330000D01*
X201382380Y-98853809D01*
X201858571Y-98091904D02*
X201858571Y-98425238D01*
X202382380Y-98425238D02*
X201382380Y-98425238D01*
X201382380Y-97949047D01*
X202382380Y-97044285D02*
X202382380Y-97615714D01*
X202382380Y-97330000D02*
X201382380Y-97330000D01*
X201525238Y-97425238D01*
X201620476Y-97520476D01*
X201668095Y-97615714D01*
X193762380Y-103282380D02*
X194476666Y-103282380D01*
X194619523Y-103330000D01*
X194714761Y-103425238D01*
X194762380Y-103568095D01*
X194762380Y-103663333D01*
X194762380Y-102806190D02*
X194095714Y-102806190D01*
X194190952Y-102806190D02*
X194143333Y-102758571D01*
X194095714Y-102663333D01*
X194095714Y-102520476D01*
X194143333Y-102425238D01*
X194238571Y-102377619D01*
X194762380Y-102377619D01*
X194238571Y-102377619D02*
X194143333Y-102330000D01*
X194095714Y-102234761D01*
X194095714Y-102091904D01*
X194143333Y-101996666D01*
X194238571Y-101949047D01*
X194762380Y-101949047D01*
X194095714Y-101472857D02*
X195095714Y-101472857D01*
X194143333Y-101472857D02*
X194095714Y-101377619D01*
X194095714Y-101187142D01*
X194143333Y-101091904D01*
X194190952Y-101044285D01*
X194286190Y-100996666D01*
X194571904Y-100996666D01*
X194667142Y-101044285D01*
X194714761Y-101091904D01*
X194762380Y-101187142D01*
X194762380Y-101377619D01*
X194714761Y-101472857D01*
X194381428Y-100568095D02*
X194381428Y-99806190D01*
X194238571Y-99330000D02*
X194238571Y-98996666D01*
X194762380Y-98853809D02*
X194762380Y-99330000D01*
X193762380Y-99330000D01*
X193762380Y-98853809D01*
X194238571Y-98091904D02*
X194238571Y-98425238D01*
X194762380Y-98425238D02*
X193762380Y-98425238D01*
X193762380Y-97949047D01*
X193762380Y-97663333D02*
X193762380Y-97044285D01*
X194143333Y-97377619D01*
X194143333Y-97234761D01*
X194190952Y-97139523D01*
X194238571Y-97091904D01*
X194333809Y-97044285D01*
X194571904Y-97044285D01*
X194667142Y-97091904D01*
X194714761Y-97139523D01*
X194762380Y-97234761D01*
X194762380Y-97520476D01*
X194714761Y-97615714D01*
X194667142Y-97663333D01*
X189952380Y-103282380D02*
X190666666Y-103282380D01*
X190809523Y-103330000D01*
X190904761Y-103425238D01*
X190952380Y-103568095D01*
X190952380Y-103663333D01*
X190952380Y-102806190D02*
X190285714Y-102806190D01*
X190380952Y-102806190D02*
X190333333Y-102758571D01*
X190285714Y-102663333D01*
X190285714Y-102520476D01*
X190333333Y-102425238D01*
X190428571Y-102377619D01*
X190952380Y-102377619D01*
X190428571Y-102377619D02*
X190333333Y-102330000D01*
X190285714Y-102234761D01*
X190285714Y-102091904D01*
X190333333Y-101996666D01*
X190428571Y-101949047D01*
X190952380Y-101949047D01*
X190285714Y-101472857D02*
X191285714Y-101472857D01*
X190333333Y-101472857D02*
X190285714Y-101377619D01*
X190285714Y-101187142D01*
X190333333Y-101091904D01*
X190380952Y-101044285D01*
X190476190Y-100996666D01*
X190761904Y-100996666D01*
X190857142Y-101044285D01*
X190904761Y-101091904D01*
X190952380Y-101187142D01*
X190952380Y-101377619D01*
X190904761Y-101472857D01*
X190571428Y-100568095D02*
X190571428Y-99806190D01*
X190428571Y-99330000D02*
X190428571Y-98996666D01*
X190952380Y-98853809D02*
X190952380Y-99330000D01*
X189952380Y-99330000D01*
X189952380Y-98853809D01*
X190428571Y-98091904D02*
X190428571Y-98425238D01*
X190952380Y-98425238D02*
X189952380Y-98425238D01*
X189952380Y-97949047D01*
X190285714Y-97139523D02*
X190952380Y-97139523D01*
X189904761Y-97377619D02*
X190619047Y-97615714D01*
X190619047Y-96996666D01*
X131062500Y-84542380D02*
X131633928Y-84542380D01*
X131348214Y-85542380D02*
X131348214Y-84542380D01*
X131967261Y-85542380D02*
X131967261Y-84542380D01*
X132348214Y-84542380D01*
X132443452Y-84590000D01*
X132491071Y-84637619D01*
X132538690Y-84732857D01*
X132538690Y-84875714D01*
X132491071Y-84970952D01*
X132443452Y-85018571D01*
X132348214Y-85066190D01*
X131967261Y-85066190D01*
X132967261Y-85161428D02*
X133729166Y-85161428D01*
X134776785Y-85542380D02*
X134443452Y-85066190D01*
X134205357Y-85542380D02*
X134205357Y-84542380D01*
X134586309Y-84542380D01*
X134681547Y-84590000D01*
X134729166Y-84637619D01*
X134776785Y-84732857D01*
X134776785Y-84875714D01*
X134729166Y-84970952D01*
X134681547Y-85018571D01*
X134586309Y-85066190D01*
X134205357Y-85066190D01*
X135110119Y-84542380D02*
X135348214Y-85542380D01*
X135538690Y-84828095D01*
X135729166Y-85542380D01*
X135967261Y-84542380D01*
X136872023Y-85542380D02*
X136300595Y-85542380D01*
X136586309Y-85542380D02*
X136586309Y-84542380D01*
X136491071Y-84685238D01*
X136395833Y-84780476D01*
X136300595Y-84828095D01*
X130395833Y-76922380D02*
X130967261Y-76922380D01*
X130681547Y-77922380D02*
X130681547Y-76922380D01*
X131300595Y-77922380D02*
X131300595Y-76922380D01*
X131681547Y-76922380D01*
X131776785Y-76970000D01*
X131824404Y-77017619D01*
X131872023Y-77112857D01*
X131872023Y-77255714D01*
X131824404Y-77350952D01*
X131776785Y-77398571D01*
X131681547Y-77446190D01*
X131300595Y-77446190D01*
X132300595Y-77541428D02*
X133062500Y-77541428D01*
X134110119Y-77827142D02*
X134062500Y-77874761D01*
X133919642Y-77922380D01*
X133824404Y-77922380D01*
X133681547Y-77874761D01*
X133586309Y-77779523D01*
X133538690Y-77684285D01*
X133491071Y-77493809D01*
X133491071Y-77350952D01*
X133538690Y-77160476D01*
X133586309Y-77065238D01*
X133681547Y-76970000D01*
X133824404Y-76922380D01*
X133919642Y-76922380D01*
X134062500Y-76970000D01*
X134110119Y-77017619D01*
X135014880Y-77922380D02*
X134538690Y-77922380D01*
X134538690Y-76922380D01*
X135348214Y-77922380D02*
X135348214Y-76922380D01*
X135919642Y-77922380D02*
X135491071Y-77350952D01*
X135919642Y-76922380D02*
X135348214Y-77493809D01*
X136872023Y-77922380D02*
X136300595Y-77922380D01*
X136586309Y-77922380D02*
X136586309Y-76922380D01*
X136491071Y-77065238D01*
X136395833Y-77160476D01*
X136300595Y-77208095D01*
X130491071Y-80732380D02*
X131062500Y-80732380D01*
X130776785Y-81732380D02*
X130776785Y-80732380D01*
X131395833Y-81732380D02*
X131395833Y-80732380D01*
X131776785Y-80732380D01*
X131872023Y-80780000D01*
X131919642Y-80827619D01*
X131967261Y-80922857D01*
X131967261Y-81065714D01*
X131919642Y-81160952D01*
X131872023Y-81208571D01*
X131776785Y-81256190D01*
X131395833Y-81256190D01*
X132395833Y-81351428D02*
X133157738Y-81351428D01*
X133586309Y-81684761D02*
X133729166Y-81732380D01*
X133967261Y-81732380D01*
X134062500Y-81684761D01*
X134110119Y-81637142D01*
X134157738Y-81541904D01*
X134157738Y-81446666D01*
X134110119Y-81351428D01*
X134062500Y-81303809D01*
X133967261Y-81256190D01*
X133776785Y-81208571D01*
X133681547Y-81160952D01*
X133633928Y-81113333D01*
X133586309Y-81018095D01*
X133586309Y-80922857D01*
X133633928Y-80827619D01*
X133681547Y-80780000D01*
X133776785Y-80732380D01*
X134014880Y-80732380D01*
X134157738Y-80780000D01*
X134443452Y-80732380D02*
X135014880Y-80732380D01*
X134729166Y-81732380D02*
X134729166Y-80732380D01*
X135681547Y-81208571D02*
X135824404Y-81256190D01*
X135872023Y-81303809D01*
X135919642Y-81399047D01*
X135919642Y-81541904D01*
X135872023Y-81637142D01*
X135824404Y-81684761D01*
X135729166Y-81732380D01*
X135348214Y-81732380D01*
X135348214Y-80732380D01*
X135681547Y-80732380D01*
X135776785Y-80780000D01*
X135824404Y-80827619D01*
X135872023Y-80922857D01*
X135872023Y-81018095D01*
X135824404Y-81113333D01*
X135776785Y-81160952D01*
X135681547Y-81208571D01*
X135348214Y-81208571D01*
X136872023Y-81732380D02*
X136300595Y-81732380D01*
X136586309Y-81732380D02*
X136586309Y-80732380D01*
X136491071Y-80875238D01*
X136395833Y-80970476D01*
X136300595Y-81018095D01*
X129586309Y-73112380D02*
X130157738Y-73112380D01*
X129872023Y-74112380D02*
X129872023Y-73112380D01*
X130491071Y-74112380D02*
X130491071Y-73112380D01*
X130872023Y-73112380D01*
X130967261Y-73160000D01*
X131014880Y-73207619D01*
X131062500Y-73302857D01*
X131062500Y-73445714D01*
X131014880Y-73540952D01*
X130967261Y-73588571D01*
X130872023Y-73636190D01*
X130491071Y-73636190D01*
X131491071Y-73731428D02*
X132252976Y-73731428D01*
X132681547Y-74064761D02*
X132824404Y-74112380D01*
X133062500Y-74112380D01*
X133157738Y-74064761D01*
X133205357Y-74017142D01*
X133252976Y-73921904D01*
X133252976Y-73826666D01*
X133205357Y-73731428D01*
X133157738Y-73683809D01*
X133062500Y-73636190D01*
X132872023Y-73588571D01*
X132776785Y-73540952D01*
X132729166Y-73493333D01*
X132681547Y-73398095D01*
X132681547Y-73302857D01*
X132729166Y-73207619D01*
X132776785Y-73160000D01*
X132872023Y-73112380D01*
X133110119Y-73112380D01*
X133252976Y-73160000D01*
X133681547Y-74112380D02*
X133681547Y-73112380D01*
X133681547Y-73588571D02*
X134252976Y-73588571D01*
X134252976Y-74112380D02*
X134252976Y-73112380D01*
X135062500Y-73588571D02*
X134729166Y-73588571D01*
X134729166Y-74112380D02*
X134729166Y-73112380D01*
X135205357Y-73112380D01*
X135443452Y-73112380D02*
X136014880Y-73112380D01*
X135729166Y-74112380D02*
X135729166Y-73112380D01*
X136872023Y-74112380D02*
X136300595Y-74112380D01*
X136586309Y-74112380D02*
X136586309Y-73112380D01*
X136491071Y-73255238D01*
X136395833Y-73350476D01*
X136300595Y-73398095D01*
X157710000Y-131601904D02*
X157662380Y-131697142D01*
X157662380Y-131840000D01*
X157710000Y-131982857D01*
X157805238Y-132078095D01*
X157900476Y-132125714D01*
X158090952Y-132173333D01*
X158233809Y-132173333D01*
X158424285Y-132125714D01*
X158519523Y-132078095D01*
X158614761Y-131982857D01*
X158662380Y-131840000D01*
X158662380Y-131744761D01*
X158614761Y-131601904D01*
X158567142Y-131554285D01*
X158233809Y-131554285D01*
X158233809Y-131744761D01*
X158662380Y-131125714D02*
X157662380Y-131125714D01*
X158662380Y-130554285D01*
X157662380Y-130554285D01*
X158662380Y-130078095D02*
X157662380Y-130078095D01*
X157662380Y-129840000D01*
X157710000Y-129697142D01*
X157805238Y-129601904D01*
X157900476Y-129554285D01*
X158090952Y-129506666D01*
X158233809Y-129506666D01*
X158424285Y-129554285D01*
X158519523Y-129601904D01*
X158614761Y-129697142D01*
X158662380Y-129840000D01*
X158662380Y-130078095D01*
X177909523Y-126992380D02*
X178242857Y-127992380D01*
X178576190Y-126992380D01*
X179338095Y-127944761D02*
X179242857Y-127992380D01*
X179052380Y-127992380D01*
X178957142Y-127944761D01*
X178909523Y-127897142D01*
X178861904Y-127801904D01*
X178861904Y-127516190D01*
X178909523Y-127420952D01*
X178957142Y-127373333D01*
X179052380Y-127325714D01*
X179242857Y-127325714D01*
X179338095Y-127373333D01*
X180195238Y-127944761D02*
X180100000Y-127992380D01*
X179909523Y-127992380D01*
X179814285Y-127944761D01*
X179766666Y-127897142D01*
X179719047Y-127801904D01*
X179719047Y-127516190D01*
X179766666Y-127420952D01*
X179814285Y-127373333D01*
X179909523Y-127325714D01*
X180100000Y-127325714D01*
X180195238Y-127373333D01*
X176395238Y-77398571D02*
X176538095Y-77446190D01*
X176585714Y-77493809D01*
X176633333Y-77589047D01*
X176633333Y-77731904D01*
X176585714Y-77827142D01*
X176538095Y-77874761D01*
X176442857Y-77922380D01*
X176061904Y-77922380D01*
X176061904Y-76922380D01*
X176395238Y-76922380D01*
X176490476Y-76970000D01*
X176538095Y-77017619D01*
X176585714Y-77112857D01*
X176585714Y-77208095D01*
X176538095Y-77303333D01*
X176490476Y-77350952D01*
X176395238Y-77398571D01*
X176061904Y-77398571D01*
X177061904Y-76922380D02*
X177061904Y-77731904D01*
X177109523Y-77827142D01*
X177157142Y-77874761D01*
X177252380Y-77922380D01*
X177442857Y-77922380D01*
X177538095Y-77874761D01*
X177585714Y-77827142D01*
X177633333Y-77731904D01*
X177633333Y-76922380D01*
X178061904Y-77874761D02*
X178204761Y-77922380D01*
X178442857Y-77922380D01*
X178538095Y-77874761D01*
X178585714Y-77827142D01*
X178633333Y-77731904D01*
X178633333Y-77636666D01*
X178585714Y-77541428D01*
X178538095Y-77493809D01*
X178442857Y-77446190D01*
X178252380Y-77398571D01*
X178157142Y-77350952D01*
X178109523Y-77303333D01*
X178061904Y-77208095D01*
X178061904Y-77112857D01*
X178109523Y-77017619D01*
X178157142Y-76970000D01*
X178252380Y-76922380D01*
X178490476Y-76922380D01*
X178633333Y-76970000D01*
X178966666Y-76922380D02*
X179633333Y-76922380D01*
X179204761Y-77922380D01*
X176395238Y-79938571D02*
X176538095Y-79986190D01*
X176585714Y-80033809D01*
X176633333Y-80129047D01*
X176633333Y-80271904D01*
X176585714Y-80367142D01*
X176538095Y-80414761D01*
X176442857Y-80462380D01*
X176061904Y-80462380D01*
X176061904Y-79462380D01*
X176395238Y-79462380D01*
X176490476Y-79510000D01*
X176538095Y-79557619D01*
X176585714Y-79652857D01*
X176585714Y-79748095D01*
X176538095Y-79843333D01*
X176490476Y-79890952D01*
X176395238Y-79938571D01*
X176061904Y-79938571D01*
X177061904Y-79462380D02*
X177061904Y-80271904D01*
X177109523Y-80367142D01*
X177157142Y-80414761D01*
X177252380Y-80462380D01*
X177442857Y-80462380D01*
X177538095Y-80414761D01*
X177585714Y-80367142D01*
X177633333Y-80271904D01*
X177633333Y-79462380D01*
X178061904Y-80414761D02*
X178204761Y-80462380D01*
X178442857Y-80462380D01*
X178538095Y-80414761D01*
X178585714Y-80367142D01*
X178633333Y-80271904D01*
X178633333Y-80176666D01*
X178585714Y-80081428D01*
X178538095Y-80033809D01*
X178442857Y-79986190D01*
X178252380Y-79938571D01*
X178157142Y-79890952D01*
X178109523Y-79843333D01*
X178061904Y-79748095D01*
X178061904Y-79652857D01*
X178109523Y-79557619D01*
X178157142Y-79510000D01*
X178252380Y-79462380D01*
X178490476Y-79462380D01*
X178633333Y-79510000D01*
X179490476Y-79462380D02*
X179300000Y-79462380D01*
X179204761Y-79510000D01*
X179157142Y-79557619D01*
X179061904Y-79700476D01*
X179014285Y-79890952D01*
X179014285Y-80271904D01*
X179061904Y-80367142D01*
X179109523Y-80414761D01*
X179204761Y-80462380D01*
X179395238Y-80462380D01*
X179490476Y-80414761D01*
X179538095Y-80367142D01*
X179585714Y-80271904D01*
X179585714Y-80033809D01*
X179538095Y-79938571D01*
X179490476Y-79890952D01*
X179395238Y-79843333D01*
X179204761Y-79843333D01*
X179109523Y-79890952D01*
X179061904Y-79938571D01*
X179014285Y-80033809D01*
X176395238Y-82478571D02*
X176538095Y-82526190D01*
X176585714Y-82573809D01*
X176633333Y-82669047D01*
X176633333Y-82811904D01*
X176585714Y-82907142D01*
X176538095Y-82954761D01*
X176442857Y-83002380D01*
X176061904Y-83002380D01*
X176061904Y-82002380D01*
X176395238Y-82002380D01*
X176490476Y-82050000D01*
X176538095Y-82097619D01*
X176585714Y-82192857D01*
X176585714Y-82288095D01*
X176538095Y-82383333D01*
X176490476Y-82430952D01*
X176395238Y-82478571D01*
X176061904Y-82478571D01*
X177061904Y-82002380D02*
X177061904Y-82811904D01*
X177109523Y-82907142D01*
X177157142Y-82954761D01*
X177252380Y-83002380D01*
X177442857Y-83002380D01*
X177538095Y-82954761D01*
X177585714Y-82907142D01*
X177633333Y-82811904D01*
X177633333Y-82002380D01*
X178061904Y-82954761D02*
X178204761Y-83002380D01*
X178442857Y-83002380D01*
X178538095Y-82954761D01*
X178585714Y-82907142D01*
X178633333Y-82811904D01*
X178633333Y-82716666D01*
X178585714Y-82621428D01*
X178538095Y-82573809D01*
X178442857Y-82526190D01*
X178252380Y-82478571D01*
X178157142Y-82430952D01*
X178109523Y-82383333D01*
X178061904Y-82288095D01*
X178061904Y-82192857D01*
X178109523Y-82097619D01*
X178157142Y-82050000D01*
X178252380Y-82002380D01*
X178490476Y-82002380D01*
X178633333Y-82050000D01*
X179538095Y-82002380D02*
X179061904Y-82002380D01*
X179014285Y-82478571D01*
X179061904Y-82430952D01*
X179157142Y-82383333D01*
X179395238Y-82383333D01*
X179490476Y-82430952D01*
X179538095Y-82478571D01*
X179585714Y-82573809D01*
X179585714Y-82811904D01*
X179538095Y-82907142D01*
X179490476Y-82954761D01*
X179395238Y-83002380D01*
X179157142Y-83002380D01*
X179061904Y-82954761D01*
X179014285Y-82907142D01*
X176395238Y-85018571D02*
X176538095Y-85066190D01*
X176585714Y-85113809D01*
X176633333Y-85209047D01*
X176633333Y-85351904D01*
X176585714Y-85447142D01*
X176538095Y-85494761D01*
X176442857Y-85542380D01*
X176061904Y-85542380D01*
X176061904Y-84542380D01*
X176395238Y-84542380D01*
X176490476Y-84590000D01*
X176538095Y-84637619D01*
X176585714Y-84732857D01*
X176585714Y-84828095D01*
X176538095Y-84923333D01*
X176490476Y-84970952D01*
X176395238Y-85018571D01*
X176061904Y-85018571D01*
X177061904Y-84542380D02*
X177061904Y-85351904D01*
X177109523Y-85447142D01*
X177157142Y-85494761D01*
X177252380Y-85542380D01*
X177442857Y-85542380D01*
X177538095Y-85494761D01*
X177585714Y-85447142D01*
X177633333Y-85351904D01*
X177633333Y-84542380D01*
X178061904Y-85494761D02*
X178204761Y-85542380D01*
X178442857Y-85542380D01*
X178538095Y-85494761D01*
X178585714Y-85447142D01*
X178633333Y-85351904D01*
X178633333Y-85256666D01*
X178585714Y-85161428D01*
X178538095Y-85113809D01*
X178442857Y-85066190D01*
X178252380Y-85018571D01*
X178157142Y-84970952D01*
X178109523Y-84923333D01*
X178061904Y-84828095D01*
X178061904Y-84732857D01*
X178109523Y-84637619D01*
X178157142Y-84590000D01*
X178252380Y-84542380D01*
X178490476Y-84542380D01*
X178633333Y-84590000D01*
X179490476Y-84875714D02*
X179490476Y-85542380D01*
X179252380Y-84494761D02*
X179014285Y-85209047D01*
X179633333Y-85209047D01*
X176395238Y-87558571D02*
X176538095Y-87606190D01*
X176585714Y-87653809D01*
X176633333Y-87749047D01*
X176633333Y-87891904D01*
X176585714Y-87987142D01*
X176538095Y-88034761D01*
X176442857Y-88082380D01*
X176061904Y-88082380D01*
X176061904Y-87082380D01*
X176395238Y-87082380D01*
X176490476Y-87130000D01*
X176538095Y-87177619D01*
X176585714Y-87272857D01*
X176585714Y-87368095D01*
X176538095Y-87463333D01*
X176490476Y-87510952D01*
X176395238Y-87558571D01*
X176061904Y-87558571D01*
X177061904Y-87082380D02*
X177061904Y-87891904D01*
X177109523Y-87987142D01*
X177157142Y-88034761D01*
X177252380Y-88082380D01*
X177442857Y-88082380D01*
X177538095Y-88034761D01*
X177585714Y-87987142D01*
X177633333Y-87891904D01*
X177633333Y-87082380D01*
X178061904Y-88034761D02*
X178204761Y-88082380D01*
X178442857Y-88082380D01*
X178538095Y-88034761D01*
X178585714Y-87987142D01*
X178633333Y-87891904D01*
X178633333Y-87796666D01*
X178585714Y-87701428D01*
X178538095Y-87653809D01*
X178442857Y-87606190D01*
X178252380Y-87558571D01*
X178157142Y-87510952D01*
X178109523Y-87463333D01*
X178061904Y-87368095D01*
X178061904Y-87272857D01*
X178109523Y-87177619D01*
X178157142Y-87130000D01*
X178252380Y-87082380D01*
X178490476Y-87082380D01*
X178633333Y-87130000D01*
X178966666Y-87082380D02*
X179585714Y-87082380D01*
X179252380Y-87463333D01*
X179395238Y-87463333D01*
X179490476Y-87510952D01*
X179538095Y-87558571D01*
X179585714Y-87653809D01*
X179585714Y-87891904D01*
X179538095Y-87987142D01*
X179490476Y-88034761D01*
X179395238Y-88082380D01*
X179109523Y-88082380D01*
X179014285Y-88034761D01*
X178966666Y-87987142D01*
X176395238Y-90098571D02*
X176538095Y-90146190D01*
X176585714Y-90193809D01*
X176633333Y-90289047D01*
X176633333Y-90431904D01*
X176585714Y-90527142D01*
X176538095Y-90574761D01*
X176442857Y-90622380D01*
X176061904Y-90622380D01*
X176061904Y-89622380D01*
X176395238Y-89622380D01*
X176490476Y-89670000D01*
X176538095Y-89717619D01*
X176585714Y-89812857D01*
X176585714Y-89908095D01*
X176538095Y-90003333D01*
X176490476Y-90050952D01*
X176395238Y-90098571D01*
X176061904Y-90098571D01*
X177061904Y-89622380D02*
X177061904Y-90431904D01*
X177109523Y-90527142D01*
X177157142Y-90574761D01*
X177252380Y-90622380D01*
X177442857Y-90622380D01*
X177538095Y-90574761D01*
X177585714Y-90527142D01*
X177633333Y-90431904D01*
X177633333Y-89622380D01*
X178061904Y-90574761D02*
X178204761Y-90622380D01*
X178442857Y-90622380D01*
X178538095Y-90574761D01*
X178585714Y-90527142D01*
X178633333Y-90431904D01*
X178633333Y-90336666D01*
X178585714Y-90241428D01*
X178538095Y-90193809D01*
X178442857Y-90146190D01*
X178252380Y-90098571D01*
X178157142Y-90050952D01*
X178109523Y-90003333D01*
X178061904Y-89908095D01*
X178061904Y-89812857D01*
X178109523Y-89717619D01*
X178157142Y-89670000D01*
X178252380Y-89622380D01*
X178490476Y-89622380D01*
X178633333Y-89670000D01*
X179014285Y-89717619D02*
X179061904Y-89670000D01*
X179157142Y-89622380D01*
X179395238Y-89622380D01*
X179490476Y-89670000D01*
X179538095Y-89717619D01*
X179585714Y-89812857D01*
X179585714Y-89908095D01*
X179538095Y-90050952D01*
X178966666Y-90622380D01*
X179585714Y-90622380D01*
X176395238Y-102798571D02*
X176538095Y-102846190D01*
X176585714Y-102893809D01*
X176633333Y-102989047D01*
X176633333Y-103131904D01*
X176585714Y-103227142D01*
X176538095Y-103274761D01*
X176442857Y-103322380D01*
X176061904Y-103322380D01*
X176061904Y-102322380D01*
X176395238Y-102322380D01*
X176490476Y-102370000D01*
X176538095Y-102417619D01*
X176585714Y-102512857D01*
X176585714Y-102608095D01*
X176538095Y-102703333D01*
X176490476Y-102750952D01*
X176395238Y-102798571D01*
X176061904Y-102798571D01*
X177061904Y-102322380D02*
X177061904Y-103131904D01*
X177109523Y-103227142D01*
X177157142Y-103274761D01*
X177252380Y-103322380D01*
X177442857Y-103322380D01*
X177538095Y-103274761D01*
X177585714Y-103227142D01*
X177633333Y-103131904D01*
X177633333Y-102322380D01*
X178061904Y-103274761D02*
X178204761Y-103322380D01*
X178442857Y-103322380D01*
X178538095Y-103274761D01*
X178585714Y-103227142D01*
X178633333Y-103131904D01*
X178633333Y-103036666D01*
X178585714Y-102941428D01*
X178538095Y-102893809D01*
X178442857Y-102846190D01*
X178252380Y-102798571D01*
X178157142Y-102750952D01*
X178109523Y-102703333D01*
X178061904Y-102608095D01*
X178061904Y-102512857D01*
X178109523Y-102417619D01*
X178157142Y-102370000D01*
X178252380Y-102322380D01*
X178490476Y-102322380D01*
X178633333Y-102370000D01*
X179585714Y-103322380D02*
X179014285Y-103322380D01*
X179300000Y-103322380D02*
X179300000Y-102322380D01*
X179204761Y-102465238D01*
X179109523Y-102560476D01*
X179014285Y-102608095D01*
X176395238Y-105338571D02*
X176538095Y-105386190D01*
X176585714Y-105433809D01*
X176633333Y-105529047D01*
X176633333Y-105671904D01*
X176585714Y-105767142D01*
X176538095Y-105814761D01*
X176442857Y-105862380D01*
X176061904Y-105862380D01*
X176061904Y-104862380D01*
X176395238Y-104862380D01*
X176490476Y-104910000D01*
X176538095Y-104957619D01*
X176585714Y-105052857D01*
X176585714Y-105148095D01*
X176538095Y-105243333D01*
X176490476Y-105290952D01*
X176395238Y-105338571D01*
X176061904Y-105338571D01*
X177061904Y-104862380D02*
X177061904Y-105671904D01*
X177109523Y-105767142D01*
X177157142Y-105814761D01*
X177252380Y-105862380D01*
X177442857Y-105862380D01*
X177538095Y-105814761D01*
X177585714Y-105767142D01*
X177633333Y-105671904D01*
X177633333Y-104862380D01*
X178061904Y-105814761D02*
X178204761Y-105862380D01*
X178442857Y-105862380D01*
X178538095Y-105814761D01*
X178585714Y-105767142D01*
X178633333Y-105671904D01*
X178633333Y-105576666D01*
X178585714Y-105481428D01*
X178538095Y-105433809D01*
X178442857Y-105386190D01*
X178252380Y-105338571D01*
X178157142Y-105290952D01*
X178109523Y-105243333D01*
X178061904Y-105148095D01*
X178061904Y-105052857D01*
X178109523Y-104957619D01*
X178157142Y-104910000D01*
X178252380Y-104862380D01*
X178490476Y-104862380D01*
X178633333Y-104910000D01*
X179252380Y-104862380D02*
X179347619Y-104862380D01*
X179442857Y-104910000D01*
X179490476Y-104957619D01*
X179538095Y-105052857D01*
X179585714Y-105243333D01*
X179585714Y-105481428D01*
X179538095Y-105671904D01*
X179490476Y-105767142D01*
X179442857Y-105814761D01*
X179347619Y-105862380D01*
X179252380Y-105862380D01*
X179157142Y-105814761D01*
X179109523Y-105767142D01*
X179061904Y-105671904D01*
X179014285Y-105481428D01*
X179014285Y-105243333D01*
X179061904Y-105052857D01*
X179109523Y-104957619D01*
X179157142Y-104910000D01*
X179252380Y-104862380D01*
X155448095Y-64222380D02*
X155448095Y-65031904D01*
X155495714Y-65127142D01*
X155543333Y-65174761D01*
X155638571Y-65222380D01*
X155829047Y-65222380D01*
X155924285Y-65174761D01*
X155971904Y-65127142D01*
X156019523Y-65031904D01*
X156019523Y-64222380D01*
X157019523Y-65222380D02*
X156448095Y-65222380D01*
X156733809Y-65222380D02*
X156733809Y-64222380D01*
X156638571Y-64365238D01*
X156543333Y-64460476D01*
X156448095Y-64508095D01*
X206192380Y-140608333D02*
X206906666Y-140608333D01*
X207049523Y-140655952D01*
X207144761Y-140751190D01*
X207192380Y-140894047D01*
X207192380Y-140989285D01*
X207192380Y-139608333D02*
X207192380Y-140179761D01*
X207192380Y-139894047D02*
X206192380Y-139894047D01*
X206335238Y-139989285D01*
X206430476Y-140084523D01*
X206478095Y-140179761D01*
X162413333Y-133647142D02*
X162365714Y-133694761D01*
X162222857Y-133742380D01*
X162127619Y-133742380D01*
X161984761Y-133694761D01*
X161889523Y-133599523D01*
X161841904Y-133504285D01*
X161794285Y-133313809D01*
X161794285Y-133170952D01*
X161841904Y-132980476D01*
X161889523Y-132885238D01*
X161984761Y-132790000D01*
X162127619Y-132742380D01*
X162222857Y-132742380D01*
X162365714Y-132790000D01*
X162413333Y-132837619D01*
X163365714Y-133742380D02*
X162794285Y-133742380D01*
X163080000Y-133742380D02*
X163080000Y-132742380D01*
X162984761Y-132885238D01*
X162889523Y-132980476D01*
X162794285Y-133028095D01*
X161123333Y-57507142D02*
X161075714Y-57554761D01*
X160932857Y-57602380D01*
X160837619Y-57602380D01*
X160694761Y-57554761D01*
X160599523Y-57459523D01*
X160551904Y-57364285D01*
X160504285Y-57173809D01*
X160504285Y-57030952D01*
X160551904Y-56840476D01*
X160599523Y-56745238D01*
X160694761Y-56650000D01*
X160837619Y-56602380D01*
X160932857Y-56602380D01*
X161075714Y-56650000D01*
X161123333Y-56697619D01*
X161504285Y-56697619D02*
X161551904Y-56650000D01*
X161647142Y-56602380D01*
X161885238Y-56602380D01*
X161980476Y-56650000D01*
X162028095Y-56697619D01*
X162075714Y-56792857D01*
X162075714Y-56888095D01*
X162028095Y-57030952D01*
X161456666Y-57602380D01*
X162075714Y-57602380D01*
M02*
